<?xml version="1.0" standalone="yes"?><svg xmlns="http://www.w3.org/2000/svg" width="81.085" height="82.635" viewBox="0 0 81.085 82.635"><path fill="rgba(166,219,207,0.7)" d="M49.831 19.248L24.084 37.024l-.293 16.477a.709.709 0 01.166-.034h.653a1.554 1.554 0 001.209-.635 1.978 1.978 0 00.319-.629l-.127-.408-.27-1.306-.389-.391a2.123 2.123 0 010-3l2.65-2.648a2.178 2.178 0 011.513-.621 2.1 2.1 0 011.5.64l.446.456a1.56 1.56 0 001.364.393 1.939 1.939 0 001.417-1.041 1.669 1.669 0 00.117-.545v-.672a2.123 2.123 0 012.125-2.12h3.74a2.124 2.124 0 012.121 2.121v.653a1.555 1.555 0 00.626 1.2 1.994 1.994 0 001.68.383 1.583 1.583 0 00.545-.326l.516-.516a2.172 2.172 0 013 0l2.643 2.643a2.123 2.123 0 010 3l-.463.464a1.578 1.578 0 00-.386 1.44 1.937 1.937 0 001.169 1.41 1.5 1.5 0 00.374.054h.7a.75.75 0 010 1.5h-.7a2.813 2.813 0 01-.946-.167 3.544 3.544 0 01-.417-.235l1.186 1.05h3.877l.75-38.671z"/><path fill="#34b5d9" d="M78.9 29.298h-.916a1.98 1.98 0 01-.676-.147 2.336 2.336 0 01-1.254-1.711 1.893 1.893 0 01.482-1.664l.627-.612a2.185 2.185 0 00.02-3.108L73.94 18.81a2.189 2.189 0 00-3.088 0l-.752.75a1.578 1.578 0 01-.393.277 2.377 2.377 0 01-2.156-.314 1.91 1.91 0 01-.863-1.544v-.892a2.188 2.188 0 00-2.185-2.185h-2.491a.75.75 0 00-.75.75V26.94a7.87 7.87 0 110 15.01v10.345a.75.75 0 00.75.75h2.486a2.193 2.193 0 002.19-2.19v-.942a1.781 1.781 0 01.07-.472 2.336 2.336 0 011.7-1.411 1.927 1.927 0 011.755.475l.63.628a2.193 2.193 0 003.1 0l3.229-3.23a2.188 2.188 0 000-3.1l-.75-.75a1.567 1.567 0 01-.284-.4 2.4 2.4 0 01.335-2.153 1.91 1.91 0 011.536-.85h.886a2.192 2.192 0 002.189-2.19v-4.977a2.188 2.188 0 00-2.184-2.185z"/><path fill="#424448" d="M51.284 56.114h-.7a2.8 2.8 0 01-.945-.167 3.434 3.434 0 01-2.069-2.5 3.076 3.076 0 01.8-2.795l.464-.464a.622.622 0 000-.878l-2.643-2.643a.635.635 0 00-.879 0l-.516.515a2.991 2.991 0 01-1.265.727 3.509 3.509 0 01-2.953-.669 3.045 3.045 0 01-1.194-2.377v-.653a.622.622 0 00-.621-.621h-3.739a.622.622 0 00-.621.622v.672a3.074 3.074 0 01-.278 1.219 3.436 3.436 0 01-2.518 1.847 3.025 3.025 0 01-2.669-.818l-.452-.464a.619.619 0 00-.442-.187.616.616 0 00-.438.181l-2.65 2.648a.622.622 0 000 .878l.513.514a3.027 3.027 0 01.72 1.237 3.49 3.49 0 01-.646 2.968 3.042 3.042 0 01-2.389 1.21H22.5a.75.75 0 110-1.5h.654a1.558 1.558 0 001.209-.635 1.985 1.985 0 00.369-1.685 1.6 1.6 0 00-.324-.535l-.513-.514a2.124 2.124 0 010-3l2.649-2.648a2.175 2.175 0 011.513-.621 2.106 2.106 0 011.5.64l.445.456a1.557 1.557 0 001.364.392 1.933 1.933 0 001.417-1.04 1.668 1.668 0 00.118-.545v-.672a2.124 2.124 0 012.121-2.122h3.739a2.124 2.124 0 012.123 2.121v.653a1.558 1.558 0 00.626 1.2 2 2 0 001.681.383 1.583 1.583 0 00.545-.326l.515-.516a2.172 2.172 0 013 0l2.644 2.643a2.124 2.124 0 010 3l-.464.464a1.58 1.58 0 00-.386 1.439 1.939 1.939 0 001.169 1.411 1.5 1.5 0 00.374.054h.7a.75.75 0 010 1.5z"/><path fill="#f05915" d="M43.463 59.355a.75.75 0 01-.75-.75 5.821 5.821 0 00-11.641 0 .75.75 0 01-1.5 0 7.321 7.321 0 0114.641 0 .75.75 0 01-.75.75z"/><g fill="#424448"><path d="M62.938 52.779h-2.487a.75.75 0 010-1.5h2.487a.69.69 0 00.689-.69v-.941a3.138 3.138 0 01.183-1.042 3.837 3.837 0 012.8-2.313 3.42 3.42 0 013.109.885l.63.629a.688.688 0 00.974 0l3.23-3.23a.688.688 0 000-.974l-.751-.752a2.925 2.925 0 01-.645-.989 3.9 3.9 0 01.541-3.5 3.386 3.386 0 012.752-1.474h.886a.691.691 0 00.69-.69V31.22a.686.686 0 00-.686-.685h-.913a3.429 3.429 0 01-1.352-.307 3.843 3.843 0 01-2.061-2.812 3.379 3.379 0 01.909-2.971l.634-.618a.679.679 0 00.206-.486.671.671 0 00-.2-.488l-3.243-3.245a.687.687 0 00-.968 0l-.751.749a2.936 2.936 0 01-.956.632 3.881 3.881 0 01-3.522-.505 3.394 3.394 0 01-1.495-2.768v-.893a.685.685 0 00-.684-.685h-2.492a.75.75 0 010-1.5h2.492a2.187 2.187 0 012.184 2.185v.893a1.912 1.912 0 00.863 1.544 2.382 2.382 0 002.157.314 1.558 1.558 0 00.392-.278l.752-.75a2.188 2.188 0 013.088 0l3.243 3.245a2.185 2.185 0 01-.019 3.109l-.627.611a1.9 1.9 0 00-.483 1.665 2.34 2.34 0 001.256 1.711 1.991 1.991 0 00.677.147h.913a2.188 2.188 0 012.186 2.185v4.978a2.193 2.193 0 01-2.19 2.19h-.886a1.913 1.913 0 00-1.536.85 2.4 2.4 0 00-.335 2.152 1.543 1.543 0 00.285.4l.75.751a2.19 2.19 0 010 3.1l-3.23 3.23a2.193 2.193 0 01-3.1 0l-.63-.629a1.924 1.924 0 00-1.754-.475 2.342 2.342 0 00-1.705 1.411 1.8 1.8 0 00-.07.473v.941a2.192 2.192 0 01-2.187 2.188z"/><path d="M61.106 42.091a.75.75 0 110-1.5 6.885 6.885 0 000-13.769.75.75 0 110-1.5 8.384 8.384 0 010 16.769z"/></g><g fill="#424448"><path d="M49.984 71.102H23.805a5.991 5.991 0 01-5.985-5.985V15.383a5.992 5.992 0 015.985-5.985h26.179a5.992 5.992 0 015.985 5.985v49.734a5.991 5.991 0 01-5.985 5.985zm-26.176-60.2a4.49 4.49 0 00-4.485 4.485v49.734a4.49 4.49 0 004.485 4.485h26.176a4.49 4.49 0 004.485-4.485V15.383a4.49 4.49 0 00-4.485-4.485z"/><path d="M55.216 64.558H18.57a.75.75 0 010-1.5h36.646a.75.75 0 010 1.5zM55.216 17.44H18.57a.75.75 0 010-1.5h36.646a.75.75 0 010 1.5z"/></g><g fill="#424448"><path d="M28.593.449A.449.449 0 0129.041 0h.833a.45.45 0 110 .9h-.833a.449.449 0 01-.448-.451zM9.176.449A.449.449 0 019.625 0h1.73a.45.45 0 010 .9h-1.73a.449.449 0 01-.449-.451zm4.87 0A.449.449 0 0114.495 0h1.73a.45.45 0 110 .9h-1.73a.449.449 0 01-.449-.451zm4.87 0A.449.449 0 0119.365 0h1.73a.45.45 0 110 .9h-1.73a.449.449 0 01-.449-.451zm4.871 0A.448.448 0 0124.235 0h1.73a.45.45 0 110 .9h-1.73a.448.448 0 01-.451-.451zM5.203 1.218V.449A.449.449 0 015.652 0h.769a.45.45 0 010 .9H6.1v.321a.45.45 0 01-.9 0zM5.203 5.319V3.84a.45.45 0 11.9 0v1.474a.45.45 0 11-.9 0zM5.203 8.715v-.833a.45.45 0 01.9 0v.833a.45.45 0 11-.9 0z"/></g><path fill="#424448" d="M4.75 25.856a1.01 1.01 0 01.994-1.034 1.007 1.007 0 011.044.978 1 1 0 01-.994 1.027h-.026a1 1 0 01-1.018-.971zm-3.019-.558a1.023 1.023 0 01-.026-1.444 1.018 1.018 0 011.441-.028 1.018 1.018 0 01.028 1.44 1.026 1.026 0 01-.735.315.956.956 0 01-.708-.283zm6.6-.162a1.02 1.02 0 01-.045-1.441 1.02 1.02 0 011.442-.045 1.02 1.02 0 01.044 1.441 1.018 1.018 0 01-.743.321 1.014 1.014 0 01-.697-.272zm-8.332-3.823a1.029 1.029 0 011.006-1.043 1.033 1.033 0 011.032 1.024 1.029 1.029 0 01-1.006 1.048h-.013A1.039 1.039 0 010 21.313zm9.265-.244a1.008 1.008 0 01.98-1.045 1 1 0 011.057.993 1.008 1.008 0 01-.982 1.019h-.035a1.007 1.007 0 01-1.019-.967zm-7.626-2.38a1.02 1.02 0 01-.009-1.441 1.019 1.019 0 011.442-.009 1.021 1.021 0 01.009 1.442 1.018 1.018 0 01-.726.3 1.013 1.013 0 01-.715-.292zm6.454-.134a1.021 1.021 0 01-.062-1.441 1.021 1.021 0 011.441-.062 1.019 1.019 0 01.062 1.44 1.014 1.014 0 01-.751.331 1.02 1.02 0 01-.689-.268zm-3.46-1.969a1.019 1.019 0 011.02-1.019 1.019 1.019 0 011.019 1.019 1.019 1.019 0 01-1.019 1.02 1.019 1.019 0 01-1.019-1.02zM69.402 81.663a1.01 1.01 0 01.994-1.033 1.006 1.006 0 011.044.978 1 1 0 01-.994 1.027h-.026a1 1 0 01-1.018-.972zm-3.019-.557a1.025 1.025 0 01-.026-1.445 1.019 1.019 0 011.441-.028 1.019 1.019 0 01.028 1.441 1.025 1.025 0 01-.735.314.955.955 0 01-.707-.282zm6.6-.162a1.021 1.021 0 01-.045-1.442 1.021 1.021 0 011.442-.045 1.021 1.021 0 01.045 1.442 1.02 1.02 0 01-.744.321 1.021 1.021 0 01-.697-.28zm-8.332-3.824a1.028 1.028 0 011.007-1.042 1.032 1.032 0 011.031 1.023 1.028 1.028 0 01-1.006 1.048h-.013a1.038 1.038 0 01-1.018-1.029zm9.265-.244a1.008 1.008 0 01.981-1.044 1 1 0 011.056.992 1.008 1.008 0 01-.982 1.019h-.039a1.006 1.006 0 01-1.015-.967zm-7.625-2.379a1.02 1.02 0 01-.01-1.442 1.021 1.021 0 011.442-.009 1.02 1.02 0 01.009 1.443 1.022 1.022 0 01-.726.3 1.012 1.012 0 01-.714-.292zm6.454-.135a1.019 1.019 0 01-.063-1.44 1.021 1.021 0 011.441-.063 1.021 1.021 0 01.062 1.441 1.017 1.017 0 01-.751.33 1.011 1.011 0 01-.688-.268zm-3.46-1.968a1.019 1.019 0 011.019-1.02 1.02 1.02 0 011.02 1.02 1.02 1.02 0 01-1.02 1.019 1.018 1.018 0 01-1.02-1.019z"/></svg>