<?xml version="1.0" standalone="yes"?><svg xmlns="http://www.w3.org/2000/svg" width="118.324" height="74.491" viewBox="0 0 118.324 74.491"><path fill="rgba(166,219,207,0.7)" d="M95.091 68.632l.676-48.862-2.965-2.966-4.046 2.029-25.343 17.444 5.824 5.743a2 2 0 01-.01 2.858l-7.417 7.21a2 2 0 01-2.788-2.868l5.952-5.786-4.542-4.479-3.261 12.477a2 2 0 11-3.87-1.01l2.288-8.761-6.045 4.162 2.569 2.409a2 2 0 01-2.734 2.92l-3.211-3.006-24.19 16.652-.843 3.769 38.7 4.568 42.145.443z"/><path fill="#424448" d="M4.75 31.941a1.01 1.01 0 01.994-1.033 1.006 1.006 0 011.044.978 1 1 0 01-.994 1.027h-.026a1 1 0 01-1.018-.972zm-3.019-.557a1.025 1.025 0 01-.026-1.445 1.019 1.019 0 011.441-.028 1.019 1.019 0 01.028 1.441 1.025 1.025 0 01-.735.314.955.955 0 01-.708-.282zm6.6-.162a1.021 1.021 0 01-.045-1.442 1.021 1.021 0 011.442-.045 1.021 1.021 0 01.045 1.442 1.02 1.02 0 01-.744.321 1.021 1.021 0 01-.697-.276zm-8.332-3.824a1.029 1.029 0 011.006-1.042 1.033 1.033 0 011.032 1.023 1.028 1.028 0 01-1.006 1.048h-.013A1.038 1.038 0 010 27.398zm9.265-.243a1.008 1.008 0 01.981-1.045 1 1 0 011.056.992 1.009 1.009 0 01-.982 1.02h-.039a1.007 1.007 0 01-1.015-.967zm-7.625-2.38a1.02 1.02 0 01-.01-1.442 1.021 1.021 0 011.442-.009 1.021 1.021 0 01.009 1.443 1.021 1.021 0 01-.726.3 1.008 1.008 0 01-.714-.292zm6.454-.135a1.019 1.019 0 01-.063-1.44 1.02 1.02 0 011.441-.062 1.019 1.019 0 01.062 1.44 1.017 1.017 0 01-.751.33 1.011 1.011 0 01-.688-.268zm-3.46-1.968a1.019 1.019 0 011.019-1.02 1.02 1.02 0 011.019 1.02 1.019 1.019 0 01-1.019 1.019 1.018 1.018 0 01-1.018-1.019z"/><path fill="#34b5d9" d="M114.492 28.905V11.05a5.683 5.683 0 003.819-5.328 5.945 5.945 0 00-3.435-5.273v5.128c0 .318-.352.526-.671.526h-3.1v2.645l-1.358 2.614.047 13.459-.9 3.792c-.282.1 1.2.527.945.663l.738 5.112c0-.319.22-.73.538-.73h3.1a.8.8 0 01.657.73v5.128a5.692 5.692 0 00-.384-10.611z"/><path fill="#424448" d="M95.767 69.984H17.12V19.766a2.969 2.969 0 012.966-2.966h72.716a2.968 2.968 0 012.965 2.966zm-77.291-1.352h75.937V19.766a1.61 1.61 0 00-1.609-1.609H20.086a1.611 1.611 0 00-1.61 1.609z"/><path fill="#424448" d="M91.665 66.154H20.553V21.081h71.112zm-69.683-1.357h68.253V22.438H21.982zM100.794 74.491H9.678a1.235 1.235 0 01-.471-2.376l8.3-3.423.028-.012a1.442 1.442 0 01.461-.071c.152-.005.376-.011.667-.016.558-.01 1.389-.018 2.471-.026 2.011-.013 4.962-.023 8.771-.028 6.415-.008 15.354-.005 26.567.01 19.092.027 38.421.079 38.614.08h.181l6.141 3.56a1.235 1.235 0 01-.619 2.3zm-90.5-1.359h90.047l-5.435-3.15c-25.8-.07-74.39-.162-76.931-.017z"/><path fill="#f05915" d="M51.039 48.677a.574.574 0 01-.389-.151l-5.646-5.158a.577.577 0 010-.852l5.646-5.157a.577.577 0 11.778.852l-5.179 4.731 5.179 4.731a.578.578 0 01-.389 1zM61.848 48.677a.577.577 0 01-.389-1l5.179-4.731-5.179-4.731a.577.577 0 11.779-.852l5.646 5.157a.577.577 0 010 .852l-5.646 5.158a.578.578 0 01-.39.147zM55.051 48.677a.565.565 0 01-.151-.02.577.577 0 01-.407-.708l2.786-10.315a.577.577 0 011.115.3L55.613 48.25a.576.576 0 01-.562.427z"/><path fill="#424448" d="M109.284 39.964a.428.428 0 01-.157-.029 6.141 6.141 0 01-.227-11.322V11.362a6.14 6.14 0 01.227-11.333.448.448 0 01.606.42v5.128a.126.126 0 00.012.065.118.118 0 00.065.012h3.1a.317.317 0 00.222-.085V.449a.449.449 0 01.634-.409 6.43 6.43 0 012.6 2.213 6.126 6.126 0 011.1 3.469 5.98 5.98 0 01-1.154 3.541 6.261 6.261 0 01-2.665 2.094v17.24a6.154 6.154 0 013.832 5.645 6.085 6.085 0 01-3.726 5.688.448.448 0 01-.619-.414v-5.128a.433.433 0 00-.215-.282h-3.069a.443.443 0 00-.112.282v5.128a.449.449 0 01-.449.448zm-.448-38.824a5.249 5.249 0 00.66 9.489.447.447 0 01.3.423v17.87a.448.448 0 01-.3.423 5.251 5.251 0 00-.661 9.479v-4.436a1.116 1.116 0 01.987-1.179h3.1a1.241 1.241 0 011.106 1.179v4.407a5.252 5.252 0 00-.983-9.467.449.449 0 01-.3-.423V11.05a.448.448 0 01.3-.423 5.262 5.262 0 003.522-4.9 5.5 5.5 0 00-2.538-4.516v4.371a1.06 1.06 0 01-1.119.974h-3.1a.941.941 0 01-.974-.974z"/><g fill="#424448"><path d="M100.967 6.056a.449.449 0 01.449-.448h.833a.45.45 0 010 .9h-.836a.449.449 0 01-.446-.452zM81.55 6.056a.449.449 0 01.449-.448h1.73a.45.45 0 110 .9h-1.73a.449.449 0 01-.449-.452zm4.871 0a.448.448 0 01.448-.448h1.73a.45.45 0 110 .9h-1.73a.448.448 0 01-.448-.452zm4.87 0a.449.449 0 01.448-.448h1.731a.45.45 0 010 .9h-1.731a.449.449 0 01-.448-.452zm4.87 0a.449.449 0 01.449-.448h1.73a.45.45 0 010 .9h-1.727a.449.449 0 01-.452-.452zM77.577 6.825v-.769a.449.449 0 01.449-.448h.769a.45.45 0 110 .9h-.32v.32a.45.45 0 11-.9 0zM77.577 10.927V9.453a.45.45 0 11.9 0v1.474a.45.45 0 01-.9 0zM77.577 14.323v-.833a.45.45 0 01.9 0v.833a.45.45 0 01-.9 0z"/></g><path fill="#424448" d="M110.761 62.257a1.009 1.009 0 01.994-1.033 1.006 1.006 0 011.044.978 1 1 0 01-.994 1.027h-.026a1 1 0 01-1.018-.972zm-3.019-.557a1.025 1.025 0 01-.026-1.445 1.019 1.019 0 011.441-.028 1.019 1.019 0 01.028 1.441 1.025 1.025 0 01-.735.314.955.955 0 01-.708-.282zm6.6-.162a1.021 1.021 0 01-.045-1.442 1.021 1.021 0 011.442-.045 1.021 1.021 0 01.044 1.442 1.018 1.018 0 01-.743.321 1.021 1.021 0 01-.697-.276zm-8.332-3.824a1.029 1.029 0 011.006-1.042 1.033 1.033 0 011.032 1.023 1.028 1.028 0 01-1.006 1.048h-.013a1.038 1.038 0 01-1.016-1.029zm9.265-.243a1.007 1.007 0 01.98-1.045 1 1 0 011.057.992 1.009 1.009 0 01-.982 1.02h-.039a1.007 1.007 0 01-1.015-.967zm-7.626-2.38a1.021 1.021 0 01-.009-1.442 1.021 1.021 0 011.442-.009 1.022 1.022 0 01.009 1.443 1.021 1.021 0 01-.726.3 1.016 1.016 0 01-.715-.292zm6.454-.135a1.019 1.019 0 01-.062-1.44 1.02 1.02 0 011.441-.062 1.019 1.019 0 01.062 1.44 1.017 1.017 0 01-.751.33 1.015 1.015 0 01-.689-.268zm-3.459-1.968a1.019 1.019 0 011.019-1.02 1.02 1.02 0 011.019 1.02 1.019 1.019 0 01-1.019 1.019 1.018 1.018 0 01-1.018-1.019z"/></svg>