<?xml version="1.0" standalone="yes"?><svg xmlns="http://www.w3.org/2000/svg" width="112.825" height="79.431" viewBox="0 0 112.825 79.431"><path fill="rgba(166,219,207,0.7)" d="M90.975 13.538h-2.022l-22.867 24.5v4.385a1.2 1.2 0 01-1.2 1.2H62.96a1.189 1.189 0 01-1.159-.994l-11.475 12.3v8.733a1.2 1.2 0 01-1.2 1.2h-1a1.2 1.2 0 01-1.2-1.2V58.57l-5.871 6.291v4.2a5.789 5.789 0 005.789 5.789h38.327a11.506 11.506 0 0011.506-11.507v-44.1a5.7 5.7 0 00-5.702-5.705zM66.086 55.329v9.832a1.2 1.2 0 01-1.2 1.2h-.411a1.2 1.2 0 01-1.2-1.2v-9.6a5.266 5.266 0 01-4.255-5.466 5.338 5.338 0 015.183-4.972 5.259 5.259 0 011.883 10.2zm15.605 8.332a1.2 1.2 0 01-1.2 1.2h-1.055a1.2 1.2 0 01-1.2-1.2V51.182a1.2 1.2 0 011.2-1.2h1.055a1.2 1.2 0 011.2 1.2zm-2.588-15.978a5.685 5.685 0 01-.867-10.839v-9a1.2 1.2 0 011.2-1.2h1.055a1.2 1.2 0 011.2 1.2v8.767a5.685 5.685 0 01-2.588 11.07z" opacity=".9"/><path fill="#34b5d9" d="M26.528 52.009v-3.67h-2.824a7.844 7.844 0 00-.861-2.344l1.918-1.919-2.588-2.588-1.8 1.8a8.156 8.156 0 00-2.449-1.129v-2.42h-3.67v2.3a8.021 8.021 0 00-2.643 1.048l-1.6-1.6-2.628 2.628 1.6 1.6a8.5 8.5 0 00-1.036 2.635l-2.3-.006v3.668h2.421a8.121 8.121 0 001.126 2.451l-1.813 1.813 2.589 2.588 1.93-1.931a7.822 7.822 0 002.344.866v2.81h3.672l-.005-2.918a7.794 7.794 0 002.127-.913l2.086 2.085 2.627-2.628-2.085-2.085a7.808 7.808 0 00.918-2.141z"/><path fill="#fff" d="M20.412 52.039a4.87 4.87 0 110-6.887 4.871 4.871 0 010 6.887z"/><path fill="#424448" d="M16.968 53.931a5.335 5.335 0 01-3.774-9.11 5.338 5.338 0 113.774 9.11zm-3.113-8.449a4.4 4.4 0 106.226 0 4.408 4.408 0 00-6.226 0z"/><path fill="#424448" d="M19.084 59.809l-3.672-.017a.474.474 0 01-.467-.475v-2.44a8.313 8.313 0 01-1.791-.666l-1.685 1.684a.469.469 0 01-.662 0l-2.588-2.589a.468.468 0 010-.661l1.546-1.546a8.593 8.593 0 01-.879-1.914l-2.07.009a.476.476 0 01-.468-.476v-3.669a.47.47 0 01.137-.332.477.477 0 01.332-.137h1.928a9.112 9.112 0 01.825-2.088l-1.348-1.348a.468.468 0 010-.661l2.628-2.628a.468.468 0 01.661 0l1.337 1.345a8.433 8.433 0 012.1-.835v-1.927a.468.468 0 01.467-.468h3.671a.468.468 0 01.467.468v2.07a8.677 8.677 0 011.918.881l1.532-1.532a.47.47 0 01.661 0l2.588 2.589a.467.467 0 010 .661l-1.673 1.673a8.238 8.238 0 01.661 1.8h2.448a.458.458 0 01.468.459v3.668a.484.484 0 01-.137.338.471.471 0 01-.33.144l-2.583-.009a8.314 8.314 0 01-.683 1.6l1.829 1.828a.465.465 0 010 .659l-2.627 2.628a.469.469 0 01-.662 0l-1.828-1.828a8.18 8.18 0 01-1.586.678l.005 2.565a.506.506 0 01-.137.347.48.48 0 01-.333.152zm-3.206-.968h2.737v-2.449a.466.466 0 01.347-.452 7.343 7.343 0 002-.859.466.466 0 01.577.066l1.755 1.755 1.966-1.967-1.754-1.754a.469.469 0 01-.067-.578 7.3 7.3 0 00.863-2.006.461.461 0 01.452-.339l2.466-.008v-2.733h-2.356a.472.472 0 01-.458-.381 7.332 7.332 0 00-.81-2.209.469.469 0 01.077-.562l1.587-1.588-1.927-1.927-1.469 1.468a.467.467 0 01-.593.056 7.693 7.693 0 00-2.307-1.065.468.468 0 01-.346-.452v-1.952h-2.734v1.833a.468.468 0 01-.375.459 7.52 7.52 0 00-2.489.987.467.467 0 01-.577-.066l-1.27-1.27-1.966 1.967 1.27 1.269a.47.47 0 01.07.572 8.049 8.049 0 00-.978 2.486.463.463 0 01-.459.375l-1.834-.005v2.738l1.953.005a.46.46 0 01.451.339 7.692 7.692 0 001.061 2.306.464.464 0 01-.056.591l-1.482 1.481 1.933 1.928 1.6-1.6a.468.468 0 01.561-.077 7.282 7.282 0 002.2.814.467.467 0 01.376.458z"/><path fill="#f05915" d="M48.392 35.1a.75.75 0 01-.75-.75v-5.684a.75.75 0 011.5 0v5.684a.75.75 0 01-.75.75z"/><path fill="#4d4d4d" d="M48.392 63.522a.75.75 0 01-.75-.75V48.561a.75.75 0 011.5 0v14.211a.75.75 0 01-.75.75z"/><path fill="#f05915" d="M48.392 43.626a5.013 5.013 0 115.014-5.013 5.019 5.019 0 01-5.014 5.013zm0-8.527a3.513 3.513 0 103.514 3.514 3.518 3.518 0 00-3.514-3.513z"/><path fill="#4d4d4d" d="M64.025 40.784a.75.75 0 01-.75-.75V28.665a.75.75 0 011.5 0v11.369a.75.75 0 01-.75.75zM64.025 63.522a.75.75 0 01-.75-.75v-8.527a.75.75 0 011.5 0v8.527a.75.75 0 01-.75.75z"/><path fill="#4d4d4d" d="M64.025 55a5.013 5.013 0 115.014-5.013A5.019 5.019 0 0164.025 55zm0-8.526a3.513 3.513 0 103.514 3.513 3.518 3.518 0 00-3.514-3.518zM79.658 37.942a.75.75 0 01-.75-.75v-8.527a.75.75 0 011.5 0v8.527a.75.75 0 01-.75.75zM79.658 63.522a.75.75 0 01-.75-.75V51.4a.75.75 0 011.5 0v11.369a.75.75 0 01-.75.753z"/><path fill="#4d4d4d" d="M79.658 46.469a5.013 5.013 0 115.013-5.014 5.019 5.019 0 01-5.013 5.014zm0-8.527a3.513 3.513 0 103.513 3.513 3.517 3.517 0 00-3.513-3.513z"/><g fill="#4d4d4d" transform="translate(-585.764 -205.8)"><path d="M672.527 276.428h-45.476a6.443 6.443 0 01-6.435-6.435v-48.318a6.443 6.443 0 016.435-6.435h45.476a6.443 6.443 0 016.435 6.435v48.318a6.443 6.443 0 01-6.435 6.435zm-45.476-59.688a4.941 4.941 0 00-4.935 4.935v48.318a4.941 4.941 0 004.935 4.935h45.476a4.941 4.941 0 004.935-4.935v-48.318a4.941 4.941 0 00-4.935-4.935z"/><path d="M678.212 228.109h-56.846a.75.75 0 010-1.5h56.846a.75.75 0 010 1.5z"/><circle cx="1.421" cy="1.421" r="1.421" transform="translate(668.264 220.253)"/><circle cx="1.421" cy="1.421" r="1.421" transform="translate(662.579 220.253)"/><circle cx="1.421" cy="1.421" r="1.421" transform="translate(656.895 220.253)"/></g><g fill="#424448"><path d="M35.136 78.982a.449.449 0 00.449.449h.833a.45.45 0 100-.9h-.833a.449.449 0 00-.449.451zM16.169 78.533H17.9a.45.45 0 010 .9h-1.731a.45.45 0 010-.9zm4.871 0h1.73a.45.45 0 010 .9h-1.734a.45.45 0 110-.9zm4.87 0h1.73a.45.45 0 010 .9h-1.73a.45.45 0 110-.9zm4.87 0h1.73a.45.45 0 110 .9h-1.73a.45.45 0 110-.9zM11.748 78.213v.769a.449.449 0 00.448.449h.769a.45.45 0 000-.9h-.32v-.32a.45.45 0 10-.9 0zM11.748 74.112v1.474a.45.45 0 00.9 0v-1.474a.45.45 0 10-.9 0zM11.748 70.716v.833a.45.45 0 00.9 0v-.833a.45.45 0 10-.9 0z"/></g><path fill="#424448" d="M4.749 31.2a1.009 1.009 0 01.994-1.033 1 1 0 011.044.978 1 1 0 01-.994 1.027h-.025a1 1 0 01-1.019-.972zm-3.018-.557a1.025 1.025 0 01-.027-1.445 1.02 1.02 0 011.442-.028 1.019 1.019 0 01.027 1.441 1.025 1.025 0 01-.735.314.955.955 0 01-.707-.286zm6.6-.163a1.02 1.02 0 01-.044-1.441 1.02 1.02 0 011.441-.045 1.021 1.021 0 01.045 1.442 1.019 1.019 0 01-.743.321 1.018 1.018 0 01-.699-.281zM0 26.657a1.028 1.028 0 011.006-1.042 1.031 1.031 0 011.031 1.023 1.028 1.028 0 01-1.006 1.048h-.013A1.037 1.037 0 010 26.653zm9.264-.244a1.008 1.008 0 01.981-1.044 1 1 0 011.056.992 1.008 1.008 0 01-.982 1.019h-.038a1.007 1.007 0 01-1.017-.971zM1.636 24.03a1.019 1.019 0 01-.009-1.442 1.019 1.019 0 011.441-.009 1.019 1.019 0 01.009 1.442 1.014 1.014 0 01-.725.3 1.016 1.016 0 01-.716-.291zm6.454-.135a1.018 1.018 0 01-.062-1.44 1.019 1.019 0 011.44-.063 1.02 1.02 0 01.062 1.441 1.017 1.017 0 01-.751.33 1.013 1.013 0 01-.686-.263zm-3.46-1.968a1.02 1.02 0 011.019-1.02 1.02 1.02 0 011.02 1.02 1.02 1.02 0 01-1.02 1.019 1.019 1.019 0 01-1.013-1.019zM106.271 10.289a1.011 1.011 0 01.994-1.033 1.006 1.006 0 011.044.978 1 1 0 01-.994 1.027h-.025a1 1 0 01-1.019-.972zm-3.018-.557a1.025 1.025 0 01-.027-1.445 1.021 1.021 0 011.442-.028 1.019 1.019 0 01.027 1.441 1.026 1.026 0 01-.735.315.953.953 0 01-.707-.283zm6.6-.162a1.021 1.021 0 01-.045-1.442 1.02 1.02 0 011.441-.045 1.021 1.021 0 01.045 1.442 1.02 1.02 0 01-.743.321 1.017 1.017 0 01-.697-.276zm-8.332-3.824a1.028 1.028 0 011.006-1.042 1.033 1.033 0 011.032 1.023 1.03 1.03 0 01-1.007 1.049h-.016a1.039 1.039 0 01-1.014-1.03zm9.264-.243a1.009 1.009 0 01.981-1.045 1 1 0 011.056.992 1.008 1.008 0 01-.981 1.02h-.039a1.008 1.008 0 01-1.016-.97zm-7.625-2.38a1.019 1.019 0 01-.009-1.442 1.02 1.02 0 011.441-.009 1.021 1.021 0 01.01 1.443 1.018 1.018 0 01-.726.3 1.013 1.013 0 01-.715-.292zm6.454-.135a1.018 1.018 0 01-.062-1.44 1.018 1.018 0 011.44-.062 1.019 1.019 0 01.063 1.44 1.019 1.019 0 01-.752.33 1.013 1.013 0 01-.688-.268zm-3.46-1.968a1.02 1.02 0 011.02-1.02 1.02 1.02 0 011.019 1.02 1.019 1.019 0 01-1.019 1.019 1.018 1.018 0 01-1.019-1.019z"/><g fill="#424448"><path d="M107.936 21.559a.449.449 0 00.448.449h.833a.45.45 0 100-.9h-.833a.449.449 0 00-.448.451zM98.705 21.111h1.73a.45.45 0 110 .9h-1.73a.45.45 0 010-.9zm4.87 0h1.73a.45.45 0 110 .9h-1.73a.45.45 0 010-.9z"/></g></svg>