<?xml version="1.0" standalone="yes"?><svg xmlns="http://www.w3.org/2000/svg" width="78.439" height="80.367" viewBox="0 0 78.439 80.367"><g data-name="Group 1655" transform="translate(-91.044 -203.523)"><path data-name="Path 3930" d="M111.921 275.29v-3.67h-2.823a7.84 7.84 0 00-.861-2.345l1.918-1.918-2.588-2.588-1.8 1.8a8.141 8.141 0 00-2.448-1.13v-2.42h-3.67v2.3a8.014 8.014 0 00-2.643 1.049l-1.6-1.6-2.625 2.632 1.6 1.6a8.5 8.5 0 00-1.035 2.635l-2.3-.006v3.668h2.421a8.123 8.123 0 001.126 2.451l-1.813 1.813 2.588 2.588 1.931-1.93a7.826 7.826 0 002.343.865v2.81h3.673v-2.918a7.765 7.765 0 002.127-.914l2.085 2.085 2.628-2.627-2.085-2.085a7.815 7.815 0 00.918-2.142z" fill="#a6dbcf"/><path data-name="Path 3931" d="M121.53 274.048a.476.476 0 01-.473.479l-.883.005a.476.476 0 01-.006-.951l.884-.006a.477.477 0 01.478.473z" fill="#424448"/><path data-name="Path 3932" d="M142.115 273.928a.475.475 0 01-.472.478l-1.835.011a.476.476 0 01-.005-.951l1.834-.011a.475.475 0 01.478.473zm-5.163.03a.474.474 0 01-.473.478l-1.834.011a.476.476 0 01-.006-.951l1.835-.011a.476.476 0 01.478.473zm-5.163.03a.477.477 0 01-.473.479l-1.834.01a.476.476 0 11-.006-.951l1.834-.011a.477.477 0 01.479.473zm-5.164.03a.476.476 0 01-.472.479l-1.835.01a.476.476 0 110-.951l1.834-.01a.474.474 0 01.473.472z" fill="#424448"/><path data-name="Path 3933" d="M146.323 273.088l.005.815a.477.477 0 01-.473.479h-.816a.476.476 0 11-.005-.951h.34v-.339a.476.476 0 11.951-.006z" fill="#424448"/><path data-name="Path 3934" d="M146.3 268.74l.009 1.562a.476.476 0 11-.951.006l-.009-1.563a.476.476 0 01.951-.005z" fill="#424448"/><path data-name="Path 3935" d="M146.276 265.139l.005.883a.476.476 0 11-.951.006l-.005-.883a.476.476 0 11.951-.006z" fill="#424448"/><circle data-name="Ellipse 462" cx="23.079" cy="23.079" r="23.079" transform="translate(96.635 204.385)" fill="#34b5d9"/><path data-name="Path 3936" d="M147.066 248.732l22.046 17.415-6.889 6.7-21.357-18.754z" fill="rgba(166,219,207,0.7)"/><circle data-name="Ellipse 463" cx="20.291" cy="20.291" r="20.291" transform="translate(97.777 209.613)" fill="#fff"/><path data-name="Path 3937" d="M163.785 273.5a5.646 5.646 0 01-3.587-1.283l-17.439-14.24a5.687 5.687 0 117.193-8.81l17.44 14.241a5.687 5.687 0 01-3.025 10.063 7.608 7.608 0 01-.582.029zm-17.421-24.238a4.321 4.321 0 00-4.3 4.743 4.282 4.282 0 001.562 2.9l17.44 14.24a4.274 4.274 0 003.158.95 4.309 4.309 0 002.293-7.625l-17.44-14.241a4.278 4.278 0 00-2.713-.971z" fill="#424448"/><path data-name="Path 3938" d="M142.484 251.1a.684.684 0 01-.436-.156l-4.756-3.884a.689.689 0 01.871-1.067l4.757 3.884a.689.689 0 01-.436 1.223z" fill="#424448"/><path data-name="Path 3939" d="M144.171 258.926a.688.688 0 01-.533-1.124l6.322-7.743a.689.689 0 111.067.871l-6.322 7.743a.686.686 0 01-.534.253z" fill="#424448"/><path data-name="Path 3940" d="M159.657 271.571a.68.68 0 01-.435-.156.688.688 0 01-.1-.969l6.322-7.742a.689.689 0 111.067.871l-6.322 7.743a.689.689 0 01-.532.253z" fill="#424448"/><path data-name="Path 3941" d="M117.6 256.74a26.679 26.679 0 112.722-.138q-1.362.138-2.722.138zm2.653-.823zM117.7 204.9a25.446 25.446 0 00-2.581.131 25.228 25.228 0 105.069 50.2A25.23 25.23 0 00117.7 204.9z" fill="#424448"/><path data-name="Path 3942" d="M117.612 252.027a21.895 21.895 0 01-2.159-43.679l.069.686-.069-.686a21.894 21.894 0 014.4 43.566 22.192 22.192 0 01-2.241.113zm.079-42.414a20.886 20.886 0 00-2.1.106 20.456 20.456 0 102.1-.106z" fill="#424448"/><path data-name="Path 3943" d="M117.621 247.314a17.184 17.184 0 01-17.063-15.457.689.689 0 111.371-.138 15.8 15.8 0 0017.312 14.135.689.689 0 01.138 1.372q-.879.089-1.758.088z" fill="#f05915"/><path data-name="Path 3944" d="M105.805 275.321a4.871 4.871 0 110-6.888 4.873 4.873 0 010 6.888z" fill="#fff"/><path data-name="Path 3945" d="M102.361 277.212a5.336 5.336 0 01-3.775-9.11 5.338 5.338 0 113.775 9.11zm-3.113-8.448a4.4 4.4 0 106.226 0 4.407 4.407 0 00-6.226 0z" fill="#424448"/><path data-name="Path 3946" d="M104.476 283.09l-3.672-.017a.475.475 0 01-.468-.475v-2.439a8.368 8.368 0 01-1.791-.666l-1.686 1.684a.467.467 0 01-.661 0l-2.588-2.588a.467.467 0 010-.661l1.546-1.546a8.6 8.6 0 01-.879-1.915l-2.07.009a.476.476 0 01-.467-.475v-3.669a.468.468 0 01.469-.469l1.928.005a9.119 9.119 0 01.825-2.089l-1.348-1.347a.468.468 0 010-.662l2.627-2.627a.468.468 0 01.662 0l1.343 1.344a8.449 8.449 0 012.1-.835v-1.927a.468.468 0 01.467-.469h3.671a.468.468 0 01.467.468v2.069a8.748 8.748 0 011.918.882l1.531-1.532a.468.468 0 01.662 0l2.588 2.588a.467.467 0 010 .661l-1.673 1.673a8.2 8.2 0 01.66 1.8l2.449.005a.458.458 0 01.467.458v3.669a.48.48 0 01-.137.337.472.472 0 01-.33.144l-2.582-.009a8.321 8.321 0 01-.683 1.6l1.829 1.827a.466.466 0 010 .66l-2.628 2.627a.467.467 0 01-.661 0l-1.829-1.829a8.169 8.169 0 01-1.585.678v2.566a.506.506 0 01-.137.347.488.488 0 01-.334.145zm-3.2-.967h2.737v-2.45a.467.467 0 01.346-.452 7.256 7.256 0 002-.859.469.469 0 01.578.066l1.755 1.755 1.966-1.966-1.754-1.755a.466.466 0 01-.067-.577 7.345 7.345 0 00.863-2.006.461.461 0 01.452-.34l2.467-.007V270.8h-2.356a.471.471 0 01-.458-.381 7.377 7.377 0 00-.81-2.209.471.471 0 01.076-.562l1.588-1.589-1.927-1.927-1.469 1.469a.468.468 0 01-.594.055 7.7 7.7 0 00-2.306-1.064.469.469 0 01-.346-.452v-1.95h-2.735v1.834a.47.47 0 01-.375.459 7.512 7.512 0 00-2.489.987.467.467 0 01-.577-.067l-1.27-1.269L94.6 266.1l1.269 1.27a.467.467 0 01.071.571 8.023 8.023 0 00-.978 2.486.465.465 0 01-.46.376l-1.833-.005v2.738h1.953a.461.461 0 01.452.34 7.671 7.671 0 001.061 2.3.465.465 0 01-.056.592l-1.479 1.49 1.927 1.927 1.6-1.6a.468.468 0 01.561-.076 7.325 7.325 0 002.2.814.466.466 0 01.376.458z" fill="#424448"/><path data-name="Path 3947" d="M159.654 226.2a1.023 1.023 0 011.007-1.047 1.019 1.019 0 011.057.991 1.008 1.008 0 01-1.007 1.04h-.025a1.012 1.012 0 01-1.032-.984zm-3.058-.565a1.038 1.038 0 01-.027-1.463 1.032 1.032 0 011.46-.028 1.031 1.031 0 01.028 1.459 1.036 1.036 0 01-.744.319.966.966 0 01-.713-.292zm6.687-.164a1.034 1.034 0 01-.046-1.46 1.034 1.034 0 011.46-.046 1.034 1.034 0 01.046 1.461 1.032 1.032 0 01-.753.325 1.029 1.029 0 01-.707-.285zm-8.44-3.873a1.041 1.041 0 011.019-1.056 1.047 1.047 0 011.045 1.037 1.042 1.042 0 01-1.019 1.062h-.014a1.052 1.052 0 01-1.031-1.048zm9.385-.247a1.021 1.021 0 01.993-1.058 1.01 1.01 0 011.07 1.005 1.021 1.021 0 01-1 1.033h-.039a1.019 1.019 0 01-1.024-.985zm-7.725-2.41a1.033 1.033 0 01-.009-1.461 1.032 1.032 0 011.46-.009 1.033 1.033 0 01.009 1.461 1.027 1.027 0 01-.735.307 1.029 1.029 0 01-.728-.303zm6.538-.137a1.032 1.032 0 01-.063-1.459 1.033 1.033 0 011.459-.063 1.032 1.032 0 01.063 1.459 1.029 1.029 0 01-.761.335 1.028 1.028 0 01-.698-.276zm-3.505-1.994a1.033 1.033 0 011.033-1.033 1.034 1.034 0 011.031 1.023 1.033 1.033 0 01-1.033 1.033 1.032 1.032 0 01-1.031-1.033z" fill="#424448"/></g></svg>