<?xml version="1.0" encoding="utf-8"?>
<!-- Generator: Adobe Illustrator 23.0.2, SVG Export Plug-In . SVG Version: 6.00 Build 0)  -->
<svg version="1.1" id="Layer_1" xmlns="http://www.w3.org/2000/svg" xmlns:xlink="http://www.w3.org/1999/xlink" x="0px" y="0px"
	 viewBox="0 0 178.2 51.5" style="enable-background:new 0 0 178.2 51.5;" xml:space="preserve">
<style type="text/css">
	.st0{fill:#F37121;}
	.st1{fill:#FFFFFF;}
	.st2{fill:#737478;}
	.st3{fill:#54565A;}
</style>
<g id="XMLID_145_">
	<circle id="XMLID_156_" class="st0" cx="25.7" cy="25.7" r="25.7"/>
	<path id="XMLID_148_" class="st1" d="M39.9,29.3c-0.3,0-0.5,0-0.7,0.1l-9.7-12.2c1-0.8,1.6-2.1,1.6-3.5c0-2.5-2-4.5-4.5-4.5
		c-2.5,0-4.5,2-4.5,4.5c0,1.5,0.7,2.8,1.9,3.7l-3.7,6.9l-5.9-2.4c0.1-0.4,0.2-0.8,0.2-1.2c0-2.1-1.7-3.9-3.9-3.9
		c-2.1,0-3.9,1.7-3.9,3.9c0,2.1,1.7,3.9,3.9,3.9c1.3,0,2.4-0.6,3.1-1.6l5.9,2.4l-2.8,5.3c-0.5-0.2-1.1-0.3-1.7-0.3
		c-2.5,0-4.5,2-4.5,4.5c0,2.5,2,4.5,4.5,4.5c1.8,0,3.4-1.1,4.1-2.6l16.5-1.8c0.5,2,2.3,3.4,4.4,3.4c0.1,0,0.1,0,0.2,0
		c1.2,0,2.3-0.6,3.1-1.4c0.8-0.9,1.2-2,1.2-3.2C44.5,31.1,42.4,29.2,39.9,29.3z M26.5,10.6c1.7,0,3,1.3,3,3c0,1.7-1.3,3-3,3
		c-1.7,0-3-1.3-3-3C23.5,12,24.9,10.6,26.5,10.6z M19.6,35.4c0-0.2,0-0.4,0-0.6c0-1.4-0.7-2.7-1.7-3.6l2.9-5.4L35.9,32
		c-0.2,0.5-0.3,1.1-0.4,1.6L19.6,35.4z M10.6,22.9c-1.3,0-2.4-1.1-2.4-2.4c0-1.3,1.1-2.4,2.4-2.4c1.3,0,2.4,1.1,2.4,2.4
		c0,0.2,0,0.5-0.1,0.7l-0.2,0.4C12.3,22.4,11.5,22.9,10.6,22.9z M15.1,37.8c-1.7,0-3-1.3-3-3c0-1.7,1.3-3,3-3s3,1.3,3,3
		C18.2,36.4,16.8,37.8,15.1,37.8z M36.8,30.7c-0.1,0.1-0.1,0.1-0.2,0.2l-15.2-6.2l3.6-6.8c0.5,0.2,1,0.3,1.5,0.3
		c0.6,0,1.3-0.1,1.8-0.4l9.6,12C37.5,30,37.1,30.3,36.8,30.7z M42.3,35.8c-0.5,0.6-1.3,0.9-2.1,1c0,0-0.1,0-0.1,0
		c-1.6,0-2.9-1.3-3-2.9c0-0.8,0.3-1.6,0.8-2.2c0.5-0.6,1.3-0.9,2.1-1c0,0,0.1,0,0.1,0c1.6,0,2.9,1.3,3,2.9
		C43.1,34.4,42.8,35.2,42.3,35.8z"/>
	<path id="XMLID_147_" class="st1" d="M25,44.3c0,0.7-0.6,1.3-1.3,1.3c-0.7,0-1.3-0.6-1.3-1.3S23,43,23.7,43
		C24.4,43,25,43.6,25,44.3z"/>
	<path id="XMLID_146_" class="st1" d="M41.6,18.7c0,0.7-0.6,1.3-1.3,1.3c-0.7,0-1.3-0.6-1.3-1.3c0-0.7,0.6-1.3,1.3-1.3
		C41,17.4,41.6,18,41.6,18.7z"/>
</g>
<g id="XMLID_169_">
	<g id="XMLID_103_">
		<path id="XMLID_143_" class="st2" d="M62.3,42.3V36H63l0,6.3H62.3z"/>
		<path id="XMLID_141_" class="st2" d="M70.7,42.3l-3.7-5v5h-0.8V36H67l3.6,4.9V36h0.8v6.3H70.7z"/>
		<path id="XMLID_139_" class="st2" d="M76.2,42.3l0-5.6h-2V36h4.8v0.7h-2v5.6H76.2z"/>
		<path id="XMLID_137_" class="st2" d="M81.7,42.3V36h4.1v0.7h-3.3v2h3.3v0.7h-3.3v2.2h3.3v0.7H81.7z"/>
		<path id="XMLID_134_" class="st2" d="M92.4,42.3l-1.6-2.5h-1.3v2.5h-0.8V36h2.5c1.2,0,2,0.7,2,1.9c0,1.1-0.8,1.8-1.6,1.8l1.7,2.6
			H92.4z M92.4,37.9c0-0.7-0.5-1.2-1.3-1.2h-1.7v2.4h1.7C91.9,39.1,92.4,38.6,92.4,37.9z"/>
		<path id="XMLID_131_" class="st2" d="M100.7,42.3l-0.6-1.4H97l-0.6,1.4h-0.9l2.5-6.3h1l2.5,6.3H100.7z M98.6,36.9l-1.3,3.4h2.7
			L98.6,36.9z"/>
		<path id="XMLID_129_" class="st2" d="M103.5,39.2c0-1.9,1.4-3.3,3.2-3.3c1.1,0,1.9,0.5,2.4,1.2l-0.7,0.4c-0.4-0.5-1-0.9-1.7-0.9
			c-1.4,0-2.4,1.1-2.4,2.6c0,1.5,1,2.6,2.4,2.6c0.7,0,1.4-0.4,1.7-0.9l0.7,0.4c-0.5,0.7-1.3,1.2-2.4,1.2
			C104.9,42.5,103.5,41.1,103.5,39.2z"/>
		<path id="XMLID_127_" class="st2" d="M113.4,42.3v-5.6h-2V36h4.8v0.7h-2v5.6H113.4z"/>
		<path id="XMLID_125_" class="st2" d="M118.9,42.3V36h0.8v6.3H118.9z"/>
		<path id="XMLID_123_" class="st2" d="M124.7,42.3l-2.5-6.3h0.9l2.1,5.4l2.1-5.4h0.9l-2.5,6.3H124.7z"/>
		<path id="XMLID_121_" class="st2" d="M130.8,42.3V36h4.1v0.7h-3.3v2h3.3v0.7h-3.3v2.2h3.3v0.7H130.8z"/>
		<path id="XMLID_119_" class="st2" d="M147.4,42.3v-5.2l-2.1,5.2h-0.3l-2.1-5.2v5.2H142V36h1.1l2,4.7l2-4.7h1.1v6.3H147.4z"/>
		<path id="XMLID_117_" class="st2" d="M151.3,42.3V36h4.1v0.7h-3.3v2h3.3v0.7h-3.3v2.2h3.3v0.7H151.3z"/>
		<path id="XMLID_114_" class="st2" d="M158.4,42.3V36h2.2c2,0,3.2,1.4,3.2,3.2c0,1.8-1.3,3.1-3.2,3.1H158.4z M162.9,39.2
			c0-1.4-0.9-2.5-2.4-2.5h-1.4v4.9h1.4C162.1,41.6,162.9,40.5,162.9,39.2z"/>
		<path id="XMLID_110_" class="st2" d="M166.7,42.3V36h0.8v6.3H166.7z"/>
		<path id="XMLID_104_" class="st2" d="M175.1,42.3l-0.6-1.4h-3.1l-0.6,1.4H170l2.5-6.3h1l2.5,6.3H175.1z M173,36.9l-1.3,3.4h2.7
			L173,36.9z"/>
	</g>
	<g id="XMLID_49_">
		<path id="XMLID_100_" class="st3" d="M62.5,25v-7.7h-2.4v-3.4h2.4v-3.6L66.4,9v4.9h3v3.4h-3V24c0,0.9,0.5,1.6,1.3,1.6
			c0.6,0,1.1-0.2,1.3-0.4l0.8,2.9c-0.6,0.5-1.6,0.9-3.2,0.9C64,29,62.5,27.6,62.5,25z"/>
		<path id="XMLID_94_" class="st3" d="M71.1,21.3c0-4.3,3.1-7.7,7.6-7.7c4.4,0,7.4,3.3,7.4,8.1v0.9H75.2c0.2,1.9,1.7,3.4,4.2,3.4
			c1.2,0,3-0.5,3.9-1.5L85,27c-1.5,1.3-3.8,2-6.1,2C74.5,29,71.1,26,71.1,21.3z M78.7,16.6c-2.4,0-3.4,1.8-3.6,3.3h7.2
			C82.2,18.5,81.3,16.6,78.7,16.6z"/>
		<path id="XMLID_90_" class="st3" d="M88.9,28.6V13.9h3.9v2c1-1.3,2.9-2.4,4.7-2.4v3.8c-0.3-0.1-0.6-0.1-1.1-0.1
			c-1.3,0-3,0.7-3.6,1.7v9.7H88.9z"/>
		<path id="XMLID_86_" class="st3" d="M99.9,28.6V13.9h3.9v2c1-1.3,2.9-2.4,4.7-2.4v3.8c-0.3-0.1-0.6-0.1-1.1-0.1
			c-1.3,0-3,0.7-3.6,1.7v9.7H99.9z"/>
		<path id="XMLID_81_" class="st3" d="M109.9,21.3c0-4.2,2.9-7.7,7.8-7.7c4.9,0,7.8,3.5,7.8,7.7c0,4.2-2.9,7.7-7.8,7.7
			C112.8,29,109.9,25.5,109.9,21.3z M121.4,21.3c0-2.3-1.4-4.3-3.8-4.3c-2.4,0-3.7,2-3.7,4.3c0,2.3,1.3,4.3,3.7,4.3
			C120,25.6,121.4,23.6,121.4,21.3z"/>
		<path id="XMLID_78_" class="st3" d="M127,26.7l1.7-2.7c1.1,1,3.3,2,5.1,2c1.7,0,2.5-0.7,2.5-1.6c0-1-1.3-1.3-3-1.6
			c-2.5-0.5-5.8-1.1-5.8-4.7c0-2.5,2.2-4.6,6-4.6c2.5,0,4.5,0.9,5.9,2l-1.6,2.6c-0.9-0.9-2.6-1.7-4.4-1.7c-1.4,0-2.3,0.6-2.3,1.5
			c0,0.9,1.2,1.1,2.8,1.4c2.5,0.5,5.9,1.2,5.9,4.9c0,2.7-2.3,4.7-6.4,4.7C131,29,128.6,28.2,127,26.7z"/>
		<path id="XMLID_65_" class="st3" d="M143.6,25v-7.7h-2.4v-3.4h2.4v-3.6l3.9-1.3v4.9h3v3.4h-3V24c0,0.9,0.5,1.6,1.3,1.6
			c0.6,0,1.1-0.2,1.3-0.4l0.8,2.9c-0.6,0.5-1.6,0.9-3.2,0.9C145,29,143.6,27.6,143.6,25z"/>
		<path id="XMLID_53_" class="st3" d="M161.9,28.6v-1.5c-1,1.2-2.7,1.9-4.7,1.9c-2.3,0-5.1-1.6-5.1-4.9c0-3.4,2.8-4.8,5.1-4.8
			c1.9,0,3.7,0.6,4.7,1.8v-2c0-1.5-1.3-2.5-3.2-2.5c-1.6,0-3,0.6-4.3,1.7l-1.5-2.6c1.8-1.6,4.1-2.3,6.4-2.3c3.4,0,6.4,1.3,6.4,5.6
			v9.5H161.9z M161.9,25.1v-1.8c-0.6-0.9-1.9-1.3-3.1-1.3c-1.5,0-2.8,0.8-2.8,2.2c0,1.4,1.2,2.2,2.8,2.2
			C160.1,26.4,161.3,26,161.9,25.1z"/>
		<path id="XMLID_50_" class="st3" d="M169.6,28.6V13.9h3.9v2c1-1.3,2.9-2.4,4.7-2.4v3.8c-0.3-0.1-0.6-0.1-1.1-0.1
			c-1.3,0-3,0.7-3.6,1.7v9.7H169.6z"/>
	</g>
</g>
</svg>
