<?xml version="1.0" encoding="utf-8"?><svg version="1.1" id="Layer_1" xmlns="http://www.w3.org/2000/svg" x="0" y="0" viewBox="0 0 272 98" xml:space="preserve"><style>.st0{fill:#434144}</style><path class="st0" d="M47.5 34c-7.2 2.3-11.6 9-11.6 17.5 0 12.7 10.4 20.9 22.5 17.8 7.2-1.9 11.8-7.8 12.6-16.4C72.3 39.4 60.3 29.8 47.5 34zM64 59.3c-1.8 5-5.4 8.5-10 8.7-5.1.2-9.2-2.6-10.9-7.9-1.9-5.6-1.9-11.7 0-17.3 1.4-4.9 6-8.2 11.1-7.8 4.7.3 8.7 4.2 10 9.5.8 3 1.6 10-.2 14.8zM39.6 34.9h.6v-.7H29.5v.7h.9c.5 0 .9.1 1.4.2 2 .7 2.1 1.6 1.2 4.4-.1.4-.3.8-.4 1.2L26 57.9c-.4.9-.7 1.9-1.2 3.2-.4-.8-.7-1.3-.9-1.7-1.9-4.2-3.8-8.5-5.8-12.8-1.3-2.8-2.6-5.6-3.7-8.5-.8-2-.1-2.9 2-3.3H18.3v-.6H3.7v.6h.8c.5 0 1.1.1 1.5.4 2.1 1.2 2.9 3.7 3.9 5.8C14 49.9 18 58.8 22 67.7c.3.7.7 1.4 1.3 2.5.5-1.1.9-1.7 1.1-2.4 3.4-8.6 6.7-17.2 10.2-25.8.9-2.3 1.5-4.9 3.3-6.5.5-.4 1.1-.6 1.7-.6zM199.3 68.3c-2.7-.5-3.6-2.7-4.6-4.8-3.8-8.6-11.8-25.2-13.5-28.6-.1-.2-.3-.2-.5-.2-.1 0-.1.1-.2.2-1.1 2.2-5 9.7-6.7 13.5-2.5 5.8-5 11.5-7.7 17.3-1.1 2.4-3 3-5.8 2.3-2-.5-2.6-1.4-2.6-4.2V52.2 38.7c0-2.5.8-3.2 3.1-3.7h.2c.3-.1.6-.1.8-.1h.8v-.6H152c-.4.3-.6.7-.8 1.2-3.3 7.7-6.8 15.4-10.1 23.1l-1.1 2.2c-.5-1.1-.9-1.9-1.3-2.6-3.5-7.7-7-15.3-10.6-23-.1-.3-.4-.7-.6-.9h-10.7v.6h1.4c3.1.5 3.6 1.1 3.8 4.2v19.1c0 2 0 3.9-.2 5.9-.3 2.8-.9 3.4-3.6 4l-.4.1c-.4.1-.8.2-1.2.2h-.1v.7h12.8v-.7s-.4-.1-.9-.2c-2.6-.5-3.7-1.8-3.9-4.2-.1-.8-.1-1.5-.1-2.3V42c0-.5.1-.9.1-1.4h.2L137.9 69h.8c4.4-9.7 8.8-19.3 13.1-29 .1-.2.2-.3.4-.2.1 0 .2.1.2.2.1.2.1.4.1.6v22.7c0 .7-.1 1.3-.2 1.9 0 1.5-1.2 2.7-2.7 2.8-.3 0-.6.1-.8.2-.5.1-1 .2-1.5.2h-.2v.6h26v-.6c0-.1-.1-.2-.2-.2-2.6-.6-3.9-1.5-3.1-3.9.7-2 1.4-3.9 2.3-5.8.3-.5.9-.8 1.4-.9 4-.1 7.9 0 11.9 0 .4 0 1.1.2 1.2.5 1.1 2.5 2.1 5.1 3 7.7.4 1.3-.4 2.2-1.8 2.3-.2 0-.4 0-.5.1-.4.1-.9.2-1.3.2v.6h13.8v-.7h-.5zm-26-12.9l6.2-14.8c2.1 4.9 4.1 9.7 6.3 14.8h-12.5zM261.7 37h.3c.3 0 .5.1.5.4 0 .2.1.4.2.7h.7c-.1-.2-.2-.4-.2-.7 0-.3-.2-.5-.5-.6.3-.1.5-.3.5-.6 0-.2-.1-.4-.2-.6-.3-.1-.6-.2-.9-.2-.3 0-.7 0-1 .1v2.7h.6V37zm0-1.2h.3c.4 0 .6.2.6.4s-.3.4-.6.4h-.3v-.8z"/><path class="st0" d="M262.2 39.4c1.5 0 2.6-1.3 2.6-2.7 0-1.5-1.3-2.6-2.7-2.6-1.4 0-2.6 1.2-2.6 2.7-.1 1.4 1.1 2.6 2.7 2.6-.1 0-.1 0 0 0zm0-4.8c1.1 0 2 1 2 2.1s-.9 2-2 2-2-.9-2-2 .9-2.1 2-2.1c-.1 0-.1 0 0 0zM100.5 34.2H93v.6h.9c.1 0 .3 0 .4.1h.2c2 .1 3.5 1.6 3.6 3.6.1.8.2 1.6.2 2.4v17c0 .4-.1.8-.1 1.6-.6-.7-1-1.1-1.3-1.5-6.1-7.6-12.2-15.2-18.3-22.7-.2-.3-.5-.6-.8-.9h-9.7v.6h1c.3 0 .5 0 .8.1 2.2.4 3.8 2.3 3.7 4.6v19.4c0 1.7 0 3.5-.1 5.2-.2 2.3-.9 3.3-3 3.8-.3.1-.7.1-1 .1h-1.3v.9h13.1V68h-.8c-.5 0-1.1-.1-1.6-.2-2.3-.8-2.8-1.5-2.8-4.7-.2-7.2-.1-14.3-.1-21.5 0-.1 0-.2.1-.3.1-.2.2-.3.4-.2.1 0 .1.1.2.1 8 9.7 15.6 19.4 23.5 28.9.1.1.3.1.4 0 .1-.1.1-.1.1-.2V68 54c0-5 .1-10.1.3-15.2.1-2.4 1-3.2 3.4-3.8.4-.1.8-.2 1.2-.2h.4v-.6h-5.5zM263.4 68.1c-1-.4-2-1.1-2.8-1.8-3.9-4.5-7.6-9.2-11.4-13.8v-.4c1-.3 2.1-.5 3.1-.8 2.6-.9 4.9-2.3 5.8-5.2 1.5-4.8-.5-9.1-5.2-10.9-1.6-.6-3.3-.9-5-.9h-30.5v.6h.7c.3 0 .6 0 .9.1 2.8.7 3.7 1.5 3.8 4.3.1 6.5.2 13-.1 19.4-.3 6.6-4.3 9.3-10.8 8.9-4.4-.3-8-3.7-8.5-8.2-.1-1.3-.2-2.6-.2-3.8 0-5.7 0-11.4.1-17.1.1-2.5.8-3 3.2-3.5h.2c.2 0 .5-.1.7-.1h.8v-.6h-15.4v.6h.9c.2 0 .4 0 .6.1l.5.1c1.5.3 2.7 1.6 2.9 3.1 0 .4.1.7.1 1.1 0 6.3-.1 12.5.1 18.8.1 5.1 2.2 8.7 6.2 10.5.4.2.7.3 1.1.4h.1c.9.2 7.9 1.6 13-.3.1 0 .2-.1.3-.1.9-.4 1.8-.9 2.5-1.5 1.9-1.8 3.1-4.1 3.4-6.7.2-1.7.4-3.3.4-5 .1-5.2.1-10.4.1-15.6 0-3.7 2.3-5 6.1-4.6 2.6.3 3.2 1.2 3.3 3.8v25.6c0 2.6-.7 3.2-3.2 3.8-.2 0-.4.1-.6.2-.4.1-.8.2-1.2.2v.2H246v-.6c-.6 0-1.1-.1-1.6-.2l-.7-.2c-2.6-.5-3.2-1.1-3.3-3.8-.1-2 0-3.9 0-5.9-.1-2 0-4.6 0-6.3 1.8-.2 3.6.7 4.5 2.3 3.4 4.6 7 9 10.5 13.5.4.5.8.8 1.4 1.1h8.1v-.6c-.6.1-1.1 0-1.5-.2zM240.2 51c0-5 .2-8.9.1-13.6-.1-.7.4-1.3 1.1-1.4h.2c2.3-.1 4.5.1 6.8.5 3 .7 4.4 3 4.6 6.2.2 3.2-1.2 5.9-4 6.8-2.9 1-5.8 1.5-8.8 1.5z"/></svg>