<?xml version="1.0" standalone="yes"?><svg xmlns="http://www.w3.org/2000/svg" width="213.931" height="101.995" viewbox="0 0 213.931 101.995"><defs/><g fill="#56565a"><path d="M0 75.121h213.609v1.92H0zM11.732 94.879a5.875 5.875 0 01-5.483 3.508 5.8 5.8 0 01-5.927-5.766 5.945 5.945 0 0111.41-2.2H10.18a4.355 4.355 0 00-3.891-2.339 4.516 4.516 0 100 9.031 4.225 4.225 0 003.891-2.238zM18.727 86.812a5.786 5.786 0 11-5.745 5.866 5.851 5.851 0 015.745-5.866zm.02 10.3a4.519 4.519 0 000-9.031 4.519 4.519 0 000 9.031zM26.267 87.097h1.411v1.27l-.04-.041v.041h.04a3.521 3.521 0 013-1.552 4.223 4.223 0 013.709 2.117 4.223 4.223 0 013.709-2.117c1.694 0 4.415 1.008 4.415 4.758v6.552H41.1v-6.391a4.234 4.234 0 00-.5-2.3 2.989 2.989 0 00-5 0 4.237 4.237 0 00-.5 2.3v6.391h-1.411v-6.391a4.238 4.238 0 00-.5-2.3 2.989 2.989 0 00-5 0 4.237 4.237 0 00-.5 2.3v6.391h-1.411zM44.773 87.097h1.411v1.27l-.04-.041v.041h.04a3.52 3.52 0 013-1.552 4.224 4.224 0 013.71 2.117 4.222 4.222 0 013.709-2.117c1.694 0 4.415 1.008 4.415 4.758v6.552h-1.411v-6.391a4.238 4.238 0 00-.5-2.3 2.989 2.989 0 00-5 0 4.238 4.238 0 00-.5 2.3v6.391h-1.412v-6.391a4.238 4.238 0 00-.5-2.3 2.989 2.989 0 00-5 0 4.238 4.238 0 00-.5 2.3v6.391h-1.411zM72.859 98.124h-1.331V96.41h-.04a3.739 3.739 0 01-3.528 1.975 4.623 4.623 0 01-3.79-1.653 5.707 5.707 0 01-.968-3.548v-6.088h1.411v6.068a4.5 4.5 0 00.786 2.9 3.309 3.309 0 002.56 1.048 3.152 3.152 0 002.339-.887 3.981 3.981 0 001.149-3.306v-5.826h1.411zM75.52 87.097h1.407v1.415h.04a3.941 3.941 0 013.387-1.693 4.582 4.582 0 013.487 1.35 5.227 5.227 0 011.371 3.891v6.068h-1.411V92.06a4.109 4.109 0 00-1.048-3.024 3.511 3.511 0 00-4.8 0 4.025 4.025 0 00-1.028 3.024v6.068h-1.411zM87.414 83.21h1.411v2.54h-1.411zm0 3.891h1.411v11.027h-1.411zM92.735 88.367h-2.318v-1.27h2.318V83.21h1.411v3.891h2.641v1.27h-2.641v9.757h-1.411zM101.565 97.761l-4.294-10.664h1.492l3.508 8.789 3.75-8.789h1.492l-6.39 14.9h-1.472zM115.253 94.859c.041 2.1 1.472 2.258 1.976 2.258a1.855 1.855 0 002.056-1.976c0-1.512-1.371-1.855-2.2-2.2-1.129-.383-2.923-.988-2.923-3.064a3 3 0 013.145-3.064 2.949 2.949 0 013 3h-1.405a1.666 1.666 0 00-1.653-1.733 1.633 1.633 0 00-1.673 1.653c0 1.169 1.169 1.572 1.976 1.835 1.29.423 3.145 1.129 3.145 3.407a3.179 3.179 0 01-3.467 3.407 3.3 3.3 0 01-3.387-3.528zM123.78 88.367h-2.318v-1.27h2.318V83.21h1.411v3.891h2.641v1.27h-2.641v9.757h-1.411zM139.726 98.124h-1.411v-1.936h-.041a5.1 5.1 0 01-4.294 2.2 5.787 5.787 0 110-11.571 4.989 4.989 0 014.294 2.217h.041v-1.935h1.411zm-5.745-1.012a4.516 4.516 0 10-4.516-4.475 4.376 4.376 0 004.516 4.475zM143.576 88.367h-2.318v-1.27h2.318V83.21h1.411v3.891h2.641v1.27h-2.641v9.757h-1.411zM149.221 93.124a4.384 4.384 0 004.274 3.992 4.181 4.181 0 003.951-2.6h1.492a5.458 5.458 0 11.323-1.391zm8.608-1.27a4.342 4.342 0 00-8.608 0zM167.062 83.21h1.411v5.826h.04a5.182 5.182 0 014.294-2.217 5.787 5.787 0 110 11.571 5.179 5.179 0 01-4.294-2.2h-.04v1.936h-1.411zm5.745 4.879a4.517 4.517 0 000 9.031 4.516 4.516 0 100-9.031zM191.958 98.124h-1.411v-1.936h-.04a5.1 5.1 0 01-4.294 2.2 5.787 5.787 0 110-11.571 4.989 4.989 0 014.294 2.217h.04v-1.935h1.411zm-5.746-1.008a4.516 4.516 0 10-4.515-4.475 4.376 4.376 0 004.515 4.471zM193.712 87.097h1.411v1.415h.04a3.942 3.942 0 013.387-1.693 4.582 4.582 0 013.488 1.35 5.229 5.229 0 011.371 3.891v6.068h-1.411V92.06a4.108 4.108 0 00-1.048-3.024 3.511 3.511 0 00-4.8 0 4.028 4.028 0 00-1.028 3.024v6.068h-1.411zM205.304 83.21h1.411v10.62h.04l5.141-6.733h1.814l-4.355 5.564 4.576 5.464h-1.814l-3.628-4.355-1.774 2.258v2.1h-1.411z"/><g><path d="M55.438 35.763l.128 1.412-.514.9a9.9 9.9 0 00-2.059.9 11.418 11.418 0 00-.642 1.932 6.469 6.469 0 00-1.158-.26c-.387 0-.514.26-.514.644v.387a.93.93 0 01-.774.514.654.654 0 01-.642-.514 8.415 8.415 0 01-1.929 1.415c0-.644-.259-.9-.516-.9-.384 0-.384.257-.384.772a2.589 2.589 0 00.514 1.674c.387-.387.515-.516.772-.516a.473.473 0 01.387.129c-.129.9-.514 1.544-1.287 1.673-.127-.26-.127-.387-.515-.387h-.257c-.9.258-1.287.514-1.287.9 0 .129.129.383.516.644-.516 1.158-1.028 1.8-1.415 1.8a.584.584 0 01-.387-.387c0-.385 1.031-1.031 1.031-2.059 0-.131-.13-.387-.13-.514 1.286-2.444 2.059-3.859 2.059-4.76v-.13c-.257.13-.387.257-.644.257s-.514-.257-.514-.9c0-.9.9-2.316.9-3.857a3.53 3.53 0 00-.13-1.159c0-.131 0-.131-.129-.131-.772 0-5.017 1.674-9.519 5.4-.257.9-1.415 1.93-3.6 3.475v1.158c-1.672 1.8-3.6 2.7-3.858 5.788a4.106 4.106 0 00-2.317 2.316c-.384.259-.643.387-.643.644a1.107 1.107 0 00.386.771 2.285 2.285 0 01-1.544 1.158 11.2 11.2 0 01-1.029-.643c-.642.132-.9.386-.9.9a3.767 3.767 0 00.259 1.158l-1.287.641a3.367 3.367 0 01.386 1.416c0 .257-.129.514-.386.514-.13 0-.515-.387-.772-1.158a2.641 2.641 0 00-.644 1.158l.772 1.03a17.327 17.327 0 01-1.93 2.7 1.913 1.913 0 00-.257 1.158 2.8 2.8 0 00.131 1.031 5.847 5.847 0 00-1.545 3.729c0 1.414.387 2.186 1.545 2.446A36.048 36.048 0 0032.8 68.3l-.127 1.028a4.165 4.165 0 003.087-1.674l.385.645c7.075-3.217 12.092-7.2 16.6-10.163a1.706 1.706 0 011.158-.387c.255 0 .384 0 .384.127 0 2.316-5.788 3.474-8.1 8.491a1.184 1.184 0 01-1.288-1.156l-.514.512c.258.133.385.259.385.388 0 .257-.127.387-.512.644a6.242 6.242 0 00-3.989 3.215 2.388 2.388 0 00-2.058 1.674c-2.186.387-3.731.642-4.76.9a4.277 4.277 0 01-1.8 1.543l-.645-.644-1.041 1.43a36.329 36.329 0 01-4.5 1.672 30.932 30.932 0 01-4.5-.9 21.659 21.659 0 01-6.3-3.348 11.239 11.239 0 01-1.03-1.286l-1.416-.385a.971.971 0 01-.257-.513c0-.259.257-.516.774-.516v-.258a4.389 4.389 0 00-.13-1.158l-.516.773a12.011 12.011 0 01-1.029-4.118c0-2.188 1.158-5.918 3.6-11.191a5.366 5.366 0 00.9-.647 4.16 4.16 0 012.189-3.342 14.227 14.227 0 015.788-6.562 22.858 22.858 0 011.929-1.674c-.257 0-.383-.128-.383-.255a2.105 2.105 0 01.257-.643c2.443-2.057 5.4-4.374 8.876-6.819.385.13.643.257.643.516s-.386.642-.9 1.027h.387a3.008 3.008 0 002.187-.9l.129.9a6.018 6.018 0 011.8-1.8c.257-.13.257-.257.257-.385 0-.259 0-.386-.129-.516a13.182 13.182 0 01-2.057.13c-.514 0-.772 0-.772-.13 0-.387 2.059-1.545 5.788-3.858a7.583 7.583 0 011.8-.257h.641a6.722 6.722 0 00-.771 1.8c0 .129 0 .259.257.259.13 0 .257-.131.514-.131.13.258.26.388.517.388a.973.973 0 00.514-.129c.387-.258.514-.387.514-.515 0-.386-.9-.514-.9-.9l.257-1.156a.665.665 0 01.517-.259 13 13 0 012.828 1.031l.9.9.387-.644 2.059 1.287 2.571-.257 1.415.515c.387.129.644 1.028.9 2.83a23.241 23.241 0 00-1.032 2.314zM12.213 64.322a3.231 3.231 0 00-.514 1.8 6.728 6.728 0 00.257 1.415 3.966 3.966 0 00.774-1.669 10.707 10.707 0 00-.518-1.546zm1.545-2.189c0-.384-.387-.643-.9-.9l-.773.514v.126c0 .517.387.772.9 1.031.516-.256.772-.51.772-.771zM12.73 59.56l.512.9a9.219 9.219 0 001.158-2.576c0-.257 0-.385-.128-.512a4.877 4.877 0 00-1.543 2.189zm35.5-19.937a.634.634 0 00-.385.128.445.445 0 01-.257-.128c-.257 0-.387.385-.387 1.026a2.159 2.159 0 00.644.26c.385 0 .644-.26.772-.9a.34.34 0 00-.384-.386zm.516 4.373l.642-.259h.259c.255 0 .385.132.385.259s0 .257-.257.512zm4.116-7.076c-.257.255-.387.255-.514.255-.259 0-.387 0-.514-.126v1.285h.9l.9-1.026zm-.257 4.887l-.257-.127.257-.514h.257zm2.444-5.144h-.385v.771h.385zM96.602 37.175a2.261 2.261 0 01.13.774 12.6 12.6 0 01-1.415 4.375 1.515 1.515 0 01-1.543 1.158c-.771 0-1.158-.388-1.158-.9 0-.771 1.929-2.185 1.929-4.5 0-1.929-1.672-3.343-4.375-3.343-9.646 0-15.823 7.073-20.453 8.488-.257.13-.516.259-.516.386 0 .387.259 1.031.386 1.93l-1.158-.258c-2.186 2.7-3.344 4.63-3.344 5.92 0 1.413 1.028 2.7 2.96 3.342a.965.965 0 00-.13.517.277.277 0 00.257.255 1.983 1.983 0 00.774-.385h-.13s1.03.131 3.345.385l-.384.516c.127.771.9.127 1.543.771l.127-.644c2.446.9 4.761 1.545 6.948 2.189.9.514 1.285.642 1.285 1.029v.129l.517.255c3.6-.384 5.788-.771 6.819-.771 4.116 0 6.69 1.287 6.69 2.316 0 .385-.13.516-.388.516a1.66 1.66 0 01-1.158-.9c-.515.13-.644.388-.9.388a2.132 2.132 0 01-1.413-.514.954.954 0 01-.774.257 1.61 1.61 0 01-.771-.13l-1.543-.127a1.365 1.365 0 01-1.158.644c-.516 0-1.03-.387-1.545-.387a1.227 1.227 0 00-.9.773l.517.512.9.515c0 .131-.128.259-.128.516a2.152 2.152 0 00.257.642l.514-.515c.127.515.515.774 1.158.9.515.518.9.644.9.772 0 .259-.512.644-1.541 1.415a9.789 9.789 0 00-2.958 2.189l-1.675.255c.644 0 1.031.132 1.031.516s-.387.642-1.158.773l-.644-1.03a2.018 2.018 0 01-.771 1.03c.514.255.643.255.643.385 0 .514-1.8 1.8-5.534 3.988l1.8-2.443v-.387a2.435 2.435 0 01-1.028.255h-.517a1.428 1.428 0 00-.127.646v.127c0 .13 0 .13-.131.13a.4.4 0 01-.257-.13l-1.158 1.416-.771.771-.515-.385c-.386.258-.643.385-.643.513h.514a1.23 1.23 0 01-1.158 1.03l-.9-1.669h-.259a1.4 1.4 0 01-.9-.387l-.259.387a6.7 6.7 0 00-3.472 1.929l.258.772a.768.768 0 00-.515-.13c-.9 0-1.8 1.029-3.6 1.029a22 22 0 01-3.345-.385l-.642-1.286c.257-1.03.772-1.544 1.158-1.544s.642.255 1.028.641a3.888 3.888 0 002.316 1.158c1.285 0 3.729-1.413 7.59-4.372l.385-.127c4.244-3.347 6.175-5.533 6.175-6.175a10.777 10.777 0 001.03-3.861l-.257-.257c-4.759 1.929-8.233 3.343-10.036 4.76v.257a25.3 25.3 0 00-2.7 1.544l-.386.513a12.163 12.163 0 01-2.574 1.931l-.9.256-.126.772a9.051 9.051 0 00-4.76 6.047 2.885 2.885 0 01.388 1.286c0 .514-.258.9-.644.9-.9 0-1.929-1.672-1.929-3.86a6.618 6.618 0 011.153-3.095h.384c.387 0 .517-.126.517-.384a1.378 1.378 0 00-.13-.641 3.293 3.293 0 001.545-1.417c0-.9 6.558-5.789 19.682-9.907a7.043 7.043 0 00-3.347-1.8h-.512v-.384l-.773-.387-.772.387-.257-.259.514-.258a2.308 2.308 0 00-1.545-1.158l-.642.9-.13-1.028c-.771.384-.514 1.028-.9 1.028h-.127l-.259-.644-.9.387a.989.989 0 00.127-.514.341.341 0 00-.384-.388h-.252c.128-.257.258-.383.258-.516 0-.255-.13-.255-.387-.255h-.257c-.257.9-.642 1.413-.9 1.413s-.514-.254-.514-.77a1.629 1.629 0 01-1.286-1.543l-.9-.514c-.387.514-.644.771-1.158.771a.83.83 0 01-.644-.644.344.344 0 01.388-.387h.257c-.644-.641-1.158-1.026-1.415-1.026a.474.474 0 00-.387.128 11.715 11.715 0 01-.385-2.961 10.33 10.33 0 011.673-5.659l.127.385.259-.517.513-.254v-.384a6.943 6.943 0 001.287-.9l.13.386a7.1 7.1 0 012.828-2.7 3.408 3.408 0 01.774-2.571h.514a2.175 2.175 0 001.287-.386 5.732 5.732 0 001.413.129c.9 0 1.415-.259 1.415-1.03a1.7 1.7 0 01-.642.13h-.13l.258-.257c.386-.127.514-.387.644-.9l-2.316 1.158a1.909 1.909 0 01-.771.128c-.13 0-.257 0-.257-.128 0-.384 1.672-1.415 5.273-2.832a3.127 3.127 0 01-1.028.132c-.259 0-.386 0-.386-.132s0-.128.127-.255a43.508 43.508 0 018.491-4.246c.13.387.387.514.517.514.257 0 .514-.259.771-.771a14.8 14.8 0 013.217-1.545h1.029a28.2 28.2 0 014.886-.644c4.762 0 6.821 1.93 6.821 7.206v.9a9.714 9.714 0 00-2.584 1.92zM60.711 71.269l.385.386.259-.771zm2.958-3.6a.481.481 0 00-.127.386c0 .13 0 .13.127.13a.472.472 0 00.387-.13l.514-.641zm4.118 8.362l.385-.126.13.255zm1.414-.256l-.255-.257a1.777 1.777 0 011.158-.644l.254.775zm.645-37.179a1.515 1.515 0 00-.386.258c0 .127.127.127.257.127a1.4 1.4 0 00.642-.127l.129-.517zm1.286 19.942c-.127 0-.127 0-.127-.132a.4.4 0 01.127-.255l.514-.516v.516c-.254.252-.386.384-.514.384zm5.147-24.315a.277.277 0 00-.258-.259 1.818 1.818 0 00-1.158 1.031 2.946 2.946 0 001.416-.387zm8.1-4.377c0-.255 0-.255-.257-.384l-.9.9 1.028-.128a.468.468 0 00.132-.391zm-1.158 38.209l.257.13.257-1.156a1.928 1.928 0 00-.511 1.023zm8.621-37.051h-.9l1.028.259zm.9.132c-.258.127-.388.127-.388.255s.129.257.259.387l.642-.257zm2.188-.132h-.773a1.143 1.143 0 001.03.644zm.127 2.833a.776.776 0 00-.127.514.964.964 0 00.514.9l.258-.9z"/><path d="M118.265 63.678c0 .644-2.059-.127-4.633 3.6.127.257.258.385.387.385a4.445 4.445 0 001.543-.385l-1.028 1.158c0-.127 0-.127-.128-.127-.646 0-4.118 3.6-13.51 6.174a13.772 13.772 0 001.415-1.158c-2.573.644-3.859 1.286-3.859 1.543 0 .128.13.128.385.128l1.158-.128c-1.413 1.417-3.6 2.059-6.688 2.059a18.016 18.016 0 01-2.575-.13 3.08 3.08 0 01-1.285-2.186c0-.388.387-.514 1.158-.514.9 0 2.316.514 4.632.9a44.468 44.468 0 0022.64-12.734c.005.772.388 1.156.388 1.415zm16.465-32.546c4.632 0 6.819 2.184 6.819 6.56 0 1.931-.9 5.146-2.057 9.906-1.288 2.314-1.932 3.472-2.316 3.472-.26 0-.388-.255-.388-.771-.644.13-1.158.386-1.285 1.03a1.991 1.991 0 00.771 1.029 2.761 2.761 0 011.672-.772 4.18 4.18 0 00-1.031 1.674c-1.541 0-.9 1.415-1.412 1.415a.975.975 0 01-.517-.13c-.127-.387-.384-.642-.641-.642-.9 0-.773 1.286-2.315 2.057-.771.515-1.159.9-1.159 1.545a3.383 3.383 0 00.387 1.415h-.387c-.513 0-.644-.13-.644-.516a1.609 1.609 0 01.131-.771c-.9.257-1.286.644-1.286 1.03a1.113 1.113 0 00.385.772 14.228 14.228 0 00-4.375 1.544c-.129 0-.255-.129-.385-.129-.516 0-.771.387-.771 1.028a5.709 5.709 0 01.127.644 1.327 1.327 0 011.029-.514.477.477 0 01.386.127l.772-.643h.257c.129 0 .259 0 .259.131 0 .385-.773 1.027-2.189 2.185h-.771a2.332 2.332 0 00-2.572 1.674l-.642-.644a1.336 1.336 0 01-.9.644c-.257 0-.387-.257-.516-.644l-.256 1.286a3.859 3.859 0 00-1.8.771h-.771l-1.031-.255c4.118-2.573 5.788-4.118 5.788-4.761l-.383-.9-2.318 1.543h.131c-.388-.514-.516-.771-.516-1.03 0-.772 1.8-.513 2.96-1.159l.643-.384 1.029.257-.771.387c0 .514.126.9.383.9.517 0 1.032-.9 1.289-2.444-.514-.257-.9-.384-.9-.512h1.03c.772-.132 1.159-.387 1.159-.774a1.289 1.289 0 00-1.418-1.415q3.089-4.051 5.792-7.333a.929.929 0 00.77-.771c0-.26 0-.387-.127-.515 3.73-5.4 5.144-10.035 5.144-12.094 0-1.93-.9-2.958-2.186-2.958-2.443 0-9.133 4.5-19.041 13.894a61.344 61.344 0 00-5.916 7.333c-.129 0-.259-.13-.386-.13-1.673 0-3.218 3.988-6.048 11.578a12.2 12.2 0 00-1.286 2.96v.9a17.45 17.45 0 00.258 2.574c-.515.514-1.546.514-3.088.514-2.444 0-3.474-.9-3.474-3.088 0-2.571 1.288-6.044 3.474-10.933-.257 0-.257-.258-.257-.644 9-16.722 13.895-23.543 13.895-23.543l.514.132.514-.259.257-.384-.9-.26.515-.514a.833.833 0 01.259-.644c2.057-3.472 3.344-5.143 3.859-5.143h.127a4.662 4.662 0 01-.383-1.417.585.585 0 01.514-.64h.387c.9 0-.13-1.674 2.056-3.09a8.6 8.6 0 00.259-1.8c5.273-7.073 7.718-12.607 7.718-15.824 0-2.44-3.343-1.412-3.343-3.215 0-.644.513-1.028 1.284-1.028a3.023 3.023 0 011.416.257c8.106 3.087 12.091 3.859 12.091 6.429 0 1.29-2.186 3.474-4.886 6.948-.387.772-.771 1.031-1.028 1.031s-.388-.13-.644-.387c-1.031 1.415-.513 2.83-1.415 3.087a.7.7 0 00-.517-.387c-1.412 0-1.284 2.189-2.056 2.189h-.257c-1.158 1.159-2.572 2.571-4.118 4.374a3.054 3.054 0 01.516 1.544c0 .258-.128.513-.385.513a5.3 5.3 0 01-1.289-.64c-.514.127-.641.255-.641.64 0 .259.515.516 1.543.516a18.564 18.564 0 00-1.156 1.931c-1.8.128-2.445.642-2.445 2.185v.771q-.966 1.936-2.7 5.019l-1.031-1.028a2.643 2.643 0 01-1.156.642h-.387c-.259 0-.771.516-1.8 1.287a1.642 1.642 0 00-.127.772.966.966 0 00.642.9c.9-.9 1.544-1.417 1.8-1.417s.384.259.384.646l.9-.259v.259c0 .512-.514.644-1.8.771a9.831 9.831 0 00-1.164 2.046l-.771-.514h-.259c-.385 0-.515-.257-.515-.771-.383.127-.513.259-.513.387l-.129.384-.258.13a23.535 23.535 0 00-2.83 5.146.943.943 0 00-.771-.257q-.773 0-.772 1.155c0 .387.257.514.9.647a3.3 3.3 0 012.059-.9v-.387a.707.707 0 00-.386-.641 2.87 2.87 0 00.9-2.446c.773 0 1.03-.385 1.417-.385a.515.515 0 01.514.257c-1.286 1.545-2.059 2.189-2.059 2.574a1.154 1.154 0 00.387.641c2.443-2.571 4.372-4.373 5.918-5.017a.983.983 0 01.126.644v.259c1.029-.9 2.7-2.315 5.147-4.377a.7.7 0 01-.385-.638c0-.647.9-1.418 1.8-1.418a.575.575 0 01.514.387c0 .257 0 .384-.257.514 4.889-3.216 8.877-4.887 12.092-4.887zM95.492 60.076c-.126 0-.255 0-.255-.129a1.441 1.441 0 01.9-1.028v1.026a1.394 1.394 0 01-.64.131zm5.918-3.99a1.527 1.527 0 00-.514-1.026 3.025 3.025 0 00-.257 1.026v.387l.771-.128zm4.76-7.333h-.505a5.61 5.61 0 00.259-1.286v-.512c-.516 0-.775.385-.775 1.025a30.414 30.414 0 00-1.672 2.833v1.159l.644-.259.257.773a11.423 11.423 0 001.286-2.96l.642.257a10.79 10.79 0 002.575-3.215 9.174 9.174 0 00-2.707 2.186zm.9-5.659c0 .388.129.642.257.642h.13l.257-.385zm8.878-9.518a.279.279 0 00-.256-.26.4.4 0 00-.258.13l-.13 1.028.514-.386a.955.955 0 00.135-.512zm5.66 25.342a1.71 1.71 0 01-.385-.9 1.145 1.145 0 01.129-.641h1.673a2.364 2.364 0 01-1.413 1.542zm5.017-25.6l-.129-.255c.129-.516.259-.644.516-.644.127 0 .256 0 .514.258zm.388-10.42v-.9a3.86 3.86 0 01.9.644zm.641-1.8c-.256 0-.385-.13-.385-.257l.257-.514h.387c.128 0 .257 0 .257.127a.834.834 0 01-.257.644zm.129 40.652a.691.691 0 01-.385-.514c0-.258.129-.387.515-.644l.512.514c.004.384-.122.639-.637.639zm1.543-10.164a.922.922 0 00-.384.772v.257l.514-.388zm2.189-39.623a.278.278 0 00-.257-.257.342.342 0 00-.387.384v.259a1.388 1.388 0 00-.13.644c.13 0 .387-.26.644-.644a.472.472 0 00.134-.387zm.644 44.77a.719.719 0 01.641.771 1.2 1.2 0 01-.9 1.158 1.856 1.856 0 01-.257-.773c0-.257.13-.512.13-.772.13-.257.261-.384.392-.384zm1.413.512c.129-.642.257-.9.516-.9a1.832 1.832 0 01.385.257v.642z"/></g></g></svg>