<?xml version="1.0" encoding="utf-8"?>
<!-- Generator: Adobe Illustrator 25.2.1, SVG Export Plug-In . SVG Version: 6.00 Build 0)  -->
<svg version="1.1" id="Layer_1" xmlns="http://www.w3.org/2000/svg" xmlns:xlink="http://www.w3.org/1999/xlink" x="0px" y="0px"
	 viewBox="0 0 272 98" style="enable-background:new 0 0 272 98;" xml:space="preserve">
<style type="text/css">
	.st0{fill:#3E3A3F;}
</style>
<path class="st0" d="M28.3,25H12.7c-0.3,0-0.6,0.3-0.6,0.6c0,0.1,0.1,0.3,0.2,0.4L27,40.8c0.2,0.2,0.2,0.6,0,0.8L12.3,56.3
	c-0.2,0.2-0.2,0.6,0,0.8c0.1,0.1,0.3,0.2,0.4,0.2h15.6c0.2,0,0.3-0.1,0.4-0.2l7.3-7.3l0,0l8.2-8.2c0.2-0.2,0.2-0.6,0-0.8
	c0,0,0,0,0,0L36,32.5l0,0l-7.3-7.3C28.6,25.1,28.5,25.1,28.3,25"/>
<path class="st0" d="M28.3,94.8c0.2,0,0.3-0.1,0.4-0.2l7.3-7.3l0,0l8.2-8.2c0.2-0.2,0.2-0.6,0-0.8L36,70.1l0,0l-7.3-7.3
	c-0.1-0.1-0.2-0.2-0.4-0.2H12.7c-0.3,0-0.6,0.2-0.6,0.6c0,0.2,0.1,0.3,0.2,0.4L27,78.3c0.2,0.2,0.2,0.6,0,0.8L12.2,93.9
	c-0.2,0.2-0.2,0.6,0,0.8c0.1,0.1,0.2,0.2,0.4,0.2H28.3z"/>
<path class="st0" d="M48.7,43.8c-0.1,0-0.3,0.1-0.4,0.2L41,51.3l0,0l-8.3,8.3c-0.2,0.2-0.2,0.6,0,0.8l8.2,8.2l0,0l7.3,7.3
	c0.1,0.1,0.3,0.2,0.4,0.2h15.6c0.3,0,0.6-0.2,0.6-0.6c0-0.2-0.1-0.3-0.2-0.4L50,60.3c-0.2-0.2-0.2-0.6,0-0.8l14.8-14.8
	c0.2-0.2,0.2-0.6,0-0.8c-0.1-0.1-0.2-0.2-0.4-0.2H48.7z"/>
<path class="st0" d="M48.8,6.3c-0.1,0-0.3,0.1-0.4,0.2l-7.3,7.3l0,0L32.8,22c-0.2,0.2-0.2,0.6,0,0.8l8.2,8.3l0,0l7.3,7.3
	c0.1,0.1,0.3,0.2,0.4,0.2h15.6c0.3,0,0.6-0.3,0.6-0.6c0-0.1-0.1-0.3-0.2-0.4L50.1,22.8c-0.2-0.2-0.2-0.6,0-0.8c0,0,0,0,0,0L64.8,7.2
	c0.2-0.2,0.2-0.6,0-0.8c-0.1-0.1-0.2-0.2-0.4-0.2L48.8,6.3z"/>
<path class="st0" d="M89.3,38.2l-7.8-13.8h-5.2v13.8h-3V6.3h9C84.7,6.1,87.1,7,89,8.6l0,0c1.7,1.6,2.6,3.9,2.5,6.2
	c0.1,2.1-0.7,4.2-2,5.9c-1.3,1.5-3.1,2.5-5.1,2.9c0.7,1.2,1.4,2.4,2.1,3.6s1.4,2.5,2.1,3.7c0.7,1.2,1.4,2.5,2.1,3.7s1.4,2.4,2.1,3.6
	L89.3,38.2z M76.2,9.1v12.5h4.9c1.9,0.1,3.9-0.5,5.4-1.8c1.3-1.2,2-3,1.9-4.8c0.1-1.6-0.6-3.2-1.8-4.3c-1.4-1.1-3.2-1.7-5.1-1.6
	L76.2,9.1z"/>
<path class="st0" d="M96.3,10.7c-0.5,0-1.1-0.2-1.4-0.6c-0.4-0.4-0.7-0.9-0.6-1.5c0-0.3,0.1-0.6,0.2-0.8c0.1-0.2,0.3-0.5,0.4-0.6
	C95,7,95.2,6.8,95.5,6.8c0.8-0.3,1.6-0.1,2.2,0.4c0.4,0.4,0.7,0.9,0.6,1.5c0,0.3-0.1,0.6-0.2,0.8c-0.1,0.2-0.3,0.5-0.4,0.7
	c-0.2,0.2-0.4,0.3-0.7,0.4C96.8,10.7,96.6,10.7,96.3,10.7z M94.9,38.2V15.4h2.8v22.8H94.9z"/>
<path class="st0" d="M110.9,38.2h-2.4l-8.8-22.8h3.1l6.7,17.7c0.1,0.1,0.1,0.3,0.1,0.4c0,0.1,0.1,0.3,0.1,0.4c0-0.1,0.1-0.3,0.1-0.4
	c0.1-0.1,0.1-0.3,0.1-0.4l0,0l6.9-17.8h3.1L110.9,38.2z"/>
<path class="st0" d="M121.9,27.3c0.1,1.2,0.2,2.4,0.6,3.6c0.3,1,0.7,2,1.4,2.8c1.3,1.6,3.3,2.5,5.4,2.4c2.4-0.1,4.8-1,6.6-2.6
	l1.4,2.2c-2.4,1.9-5.4,2.9-8.5,3c-2.7,0.1-5.4-1.1-7.1-3.2c-0.9-1.1-1.7-2.4-2.1-3.8c-0.5-1.7-0.7-3.4-0.7-5.1
	c0-1.5,0.2-3.1,0.7-4.6c0.5-1.4,1.2-2.7,2.1-3.8c0.9-1.1,2.1-1.9,3.3-2.5c1.3-0.6,2.7-0.9,4.2-0.9c2.6-0.1,5,1,6.6,3.1
	c1.5,2,2.3,4.7,2.3,8.1v1.3L121.9,27.3z M135.2,24.7c0-1.9-0.6-3.8-1.8-5.3c-1.1-1.3-2.6-1.9-4.3-1.9c-0.9,0-1.8,0.2-2.7,0.5
	c-0.8,0.3-1.5,0.8-2.2,1.5c-0.6,0.7-1.1,1.4-1.4,2.2c-0.4,0.9-0.7,1.9-0.9,3L135.2,24.7z"/>
<path class="st0" d="M151.9,18.7c-0.8-0.6-1.7-1-2.7-1.1c-2.4-0.1-4.3,1.3-5.7,4v16.6h-2.8V15.4h2.8V18c0.7-0.9,1.7-1.7,2.7-2.3
	c1-0.5,2-0.7,3.1-0.7c0.4,0,0.9,0,1.3,0.1c0.4,0.1,0.9,0.2,1.3,0.4L151.9,18.7z"/>
<path class="st0" d="M153.7,33.8c0.5,0.4,1,0.7,1.5,1c0.5,0.3,1,0.6,1.6,0.8c0.5,0.2,0.9,0.3,1.4,0.4c0.4,0.1,0.8,0.1,1.2,0.1
	c3.1,0,4.7-1.3,4.7-3.8c0-0.4-0.1-0.8-0.3-1.2c-0.2-0.4-0.5-0.7-0.8-1c-0.4-0.4-0.9-0.7-1.4-1c-0.7-0.4-1.4-0.7-2.1-1
	c-1.7-0.7-3.3-1.7-4.6-2.9c-0.9-1.1-1.4-2.4-1.4-3.9c0-1.8,0.8-3.5,2.2-4.7c1.5-1.2,3.4-1.8,5.3-1.7c2.2,0.1,4.3,0.7,6.1,1.9l-1,2.5
	c-1.5-1.1-3.4-1.7-5.3-1.8c-1.2-0.1-2.3,0.3-3.2,1c-0.8,0.6-1.2,1.6-1.2,2.6c0,0.8,0.2,1.6,0.7,2.3c0.4,0.4,0.8,0.7,1.3,1
	c0.7,0.4,1.5,0.8,2.2,1.1c1,0.4,2,1,3,1.5c0.7,0.4,1.3,0.9,1.9,1.4c1,1,1.5,2.4,1.4,3.8c0,1.8-0.7,3.5-2.1,4.7
	c-1.6,1.3-3.6,1.9-5.7,1.8c-1.1,0-2.3-0.2-3.3-0.6c-1.2-0.5-2.3-1.1-3.4-1.8L153.7,33.8z"/>
<path class="st0" d="M178.5,38.2V6.3h15.4v2.8h-12.4v11.6H193v2.8h-11.5v11.9h13.1v2.8H178.5z"/>
<path class="st0" d="M212.6,38.2v-3c-1.6,2.3-4.2,3.6-6.9,3.5c-2.9,0.1-5.6-1.2-7.4-3.5c-2-2.6-3-5.9-2.8-9.2c0-3.4,0.8-6.1,2.5-8.1
	l0,0c1.7-2.1,4.2-3.2,6.9-3.1c1,0,2,0.1,3,0.4c0.8,0.2,1.5,0.6,2.2,1c0.6,0.4,1.1,0.8,1.6,1.3c0.4,0.4,0.8,0.9,1.1,1.4V4.8h2.8v33.2
	L212.6,38.2z M212.6,22c-0.9-1.3-2.1-2.3-3.5-3.1c-1.3-0.7-2.7-1.2-4.2-1.4c-0.9,0-1.8,0.2-2.7,0.6c-0.8,0.4-1.5,0.9-2.1,1.6
	c-1.3,1.8-2,4-1.9,6.3c0,1.4,0.2,2.8,0.5,4.1c0.3,1.2,0.8,2.2,1.5,3.2c0.6,0.8,1.4,1.5,2.3,2c0.9,0.5,1.9,0.7,2.8,0.7
	c0.8,0,1.6-0.1,2.3-0.3c0.7-0.2,1.3-0.5,1.9-0.9c0.6-0.4,1.1-0.8,1.6-1.3c0.5-0.5,0.9-1,1.4-1.6L212.6,22z"/>
<path class="st0" d="M238,36.2c0,1.9-0.2,3.7-0.7,5.5c-0.4,1.4-1.1,2.7-2.1,3.8c-1.9,2-4.8,3-8.7,3c-2.5-0.1-5-0.8-7.2-2l1.9-2.3
	c1.6,1.1,3.4,1.6,5.3,1.6c5.8,0,8.7-3.1,8.7-9.2v-1.5c-1.8,2.3-4.6,3.6-7.5,3.5c-2.7,0.1-5.2-1.1-7-3.1c-1.8-2.1-2.7-4.9-2.7-8.5
	c-0.1-3.2,0.9-6.3,2.9-8.8c1.9-2.3,4.7-3.6,7.6-3.5c1.3,0,2.6,0.2,3.8,0.8c1.1,0.5,2.1,1.3,2.9,2.3v-2.5h2.8L238,36.2z M235.2,21.5
	c-2-2.7-4.2-4-6.6-4c-2.1-0.1-4.2,0.9-5.5,2.6c-1.5,2-2.3,4.4-2.1,6.9c-0.1,2.4,0.5,4.8,1.9,6.7l0,0c1.2,1.5,3.1,2.4,5,2.3
	c3.1,0,5.9-1.7,7.3-4.4L235.2,21.5z"/>
<path class="st0" d="M243.6,27.3c0.1,1.2,0.2,2.4,0.6,3.6c0.3,1,0.7,2,1.4,2.8c1.3,1.6,3.3,2.5,5.4,2.4c2.5,0,4.8-0.9,6.7-2.6
	l1.4,2.2c-2.4,1.9-5.4,2.9-8.5,3c-2.8,0.1-5.4-1.1-7.2-3.2c-0.9-1.1-1.6-2.4-2-3.8c-0.5-1.7-0.7-3.4-0.7-5.1c0-1.5,0.2-3.1,0.7-4.6
	c0.5-1.4,1.2-2.7,2.1-3.8c0.9-1.1,2.1-1.9,3.3-2.5c1.3-0.6,2.7-0.9,4.2-0.9c2.6-0.1,5,1,6.6,3.1c1.5,2,2.3,4.7,2.3,8.1v1.3
	L243.6,27.3z M256.9,24.7c0-1.9-0.6-3.8-1.8-5.3c-1.1-1.3-2.6-1.9-4.3-1.9c-0.9,0-1.8,0.2-2.7,0.5c-0.8,0.3-1.5,0.8-2.2,1.5
	c-0.6,0.7-1.1,1.4-1.4,2.2c-0.4,0.9-0.7,1.9-0.9,3L256.9,24.7z"/>
<path class="st0" d="M73.4,75.8V43.9h8.6c2.2-0.1,4.4,0.6,6.1,2.1c1.5,1.4,2.4,3.4,2.3,5.5c0,1.6-0.4,3.1-1.2,4.4
	c-0.8,1.3-2,2.3-3.3,3c1.5,0.3,2.9,1.1,4,2.2c1.3,1.5,2.1,3.4,2,5.4c0.1,2.5-0.9,4.9-2.7,6.7c-1.9,1.8-4.5,2.7-7.1,2.6L73.4,75.8z
	 M76.4,46.7v11.2h3.9c1.9,0.1,3.7-0.5,5.1-1.6c1.3-1.1,2-2.7,1.9-4.4c0-3.5-2.1-5.2-6.2-5.2L76.4,46.7z M76.4,60.7V73h5.3
	c1.9,0.1,3.7-0.5,5.2-1.6c1.3-1.2,1.9-2.9,1.8-4.7c0-4-2.8-6-8.3-6H76.4z"/>
<path class="st0" d="M103.3,52.5c2.1-0.1,4.1,0.7,5.6,2.2c1.3,1.5,1.9,3.6,1.9,6.4v14.7H108v-2.4c-0.3,0.3-0.7,0.6-1,0.9
	c-0.4,0.3-0.8,0.6-1.3,0.8c-1.5,0.8-3.2,1.3-4.9,1.3c-1.9,0.1-3.8-0.6-5.2-1.9c-1.3-1.2-2-3-2-4.8c0.1-1.1,0.4-2.2,1-3.2
	c0.5-0.9,1.2-1.7,2-2.3c0.8-0.6,1.7-1.1,2.7-1.4c1-0.3,2.1-0.5,3.1-0.5c1,0,1.9,0.1,2.8,0.4c1,0.2,1.9,0.6,2.8,1.1
	c0-0.4,0-0.9,0-1.3c0-0.4,0-0.9,0-1.3c0-1.6-0.5-3.1-1.4-4.4c-0.9-1-2.2-1.6-3.5-1.5c-2.5,0-5,1-6.8,2.8L94.5,56
	C96.8,53.6,100,52.4,103.3,52.5z M96.6,69.7c0,1.1,0.4,2.1,1.2,2.9c0.9,0.8,2.1,1.2,3.3,1.1c1.7,0.1,3.5-0.5,4.8-1.5l0,0
	c0.5-0.4,1-0.9,1.4-1.3c0.3-0.3,0.5-0.7,0.6-1.1v-3.3c-0.9-0.6-1.8-1-2.8-1.3c-0.9-0.3-1.7-0.4-2.6-0.4c-0.8,0-1.6,0.1-2.4,0.4
	c-0.7,0.2-1.3,0.6-1.9,1c-0.5,0.4-1,0.9-1.3,1.6C96.7,68.3,96.5,69,96.6,69.7z"/>
<path class="st0" d="M117,75.8h-2.8V53h2.8v2.8c1.7-2.1,4.4-3.4,7.2-3.3c2.2-0.1,4.3,0.8,5.8,2.5c1.3,1.7,2,4,2,7.1v13.8h-2.8V62.7
	c0.1-2-0.3-3.9-1.3-5.6c-0.9-1.3-2.4-2-3.9-1.9c-1.4,0.1-2.8,0.5-4.1,1.2c-1.2,0.7-2.1,1.7-2.8,2.9V75.8z"/>
<path class="st0" d="M148.3,75.8l-10-10.3v10.3h-2.8V42.5h2.8v20.4c1.6-1.6,3.1-3.3,4.7-4.9c1.6-1.7,3.1-3.3,4.7-4.9h3.7l-10.8,11.1
	l2.9,2.9l3,3l3,3l2.8,2.8H148.3z"/>
</svg>
