<?xml version="1.0" standalone="yes"?><svg xmlns="http://www.w3.org/2000/svg" width="222.473" height="98.131" viewbox="0 0 222.473 98.131"><defs/><path fill="#fff" d="M1.076 1.013h97.815v96.105H1.076z"/><path fill="#56565a" d="M0 98.131V0H99.841v98.131zm1.583-1.583h96.738V1.583H1.583v94.966z"/><path fill="#56565a" d="M3.862 3.862v90.154h91.737V3.862H3.862"/><path fill="#fff" d="M66.096 50.078a31.291 31.291 0 004.432.19l11.9-.19c5.318 0 5.381-.886 6.458-1.709.7-.506 1.9.19 1.9 1.2l-.38 11.269c0 .7-1.709.886-1.963.317l-1.39-4.113c-.633-1.456-.633-2.786-3.292-2.849l-5.318-.127.063 25.767c.063 3.039 0 4.052 1.393 4.622l3.925 1.709c.7.253.886 1.519.253 1.519l-17.79-.127c-.633 0-.823-1.33-.19-1.519l5.761-1.9c-.19-3.039 0-29.946 0-29.946-2.912 0-7.344-.506-7.661.506l-2.089 6.331c-.253.7-2.659.253-2.659-.38l.19-10.383a24.507 24.507 0 01-5.381-.823c-.317.506-1.14.633-1.836.76a20 20 0 01-3.545.127c6.584.38 8.42 5.255 8.42 8.484 0 3.989-2.279 6.9-6.838 8.674 5.825.317 9.876 4.432 9.876 9.243a9.7 9.7 0 01-5.065 8.484c-2.976 1.9-6.584 2.342-12.6 2.279l-11.776-.127c-.38 0-.76-.633-.76-.886 0-.38.76-.443 4.5-2.089.95-.76 1.456-29.819.19-31.085l-4.181-1.645c-.253-.127-.38-.76-.38-.95 0-.317.253-.506.886-.506h.504c-12.156.38-20.7-8.294-20.7-19.626a18.527 18.527 0 017.344-15.258 24.423 24.423 0 0114.308-4.622c5.508 0 10.953 1.9 14.5 5.128a22.648 22.648 0 0114.876-5.128 36.512 36.512 0 0111.333 2.026v10c0 .886-2.406.95-2.6.57-2.532-5.761-1.836-6.331-2.849-6.964a14.09 14.09 0 00-6.394-1.393 15.433 15.433 0 00-11.143 4.432 19.752 19.752 0 013.166 11.269 17.975 17.975 0 01-3.355 10.763 14.676 14.676 0 0010.763 4.622 16.9 16.9 0 006.964-1.393c2.089-1.013 1.9-2.026 5.445-7.534.253-.317 2.406 0 2.216.95l-1.836 9.623c-1.33.633-2.342 1.076-2.342 1.076l-5.255 1.33"/><path fill="#fff" d="M66.729 50.078a31.291 31.291 0 004.432.19l11.9-.19c5.318 0 5.065-1.013 6.141-1.836.7-.506 2.216.317 2.216 1.33l-.38 11.269c0 .7-1.709.886-1.963.317l-1.389-4.116c-.633-1.456-.7-2.786-3.292-2.849l-5.318-.127.063 25.767c.063 3.039 0 4.052 1.393 4.622l3.925 1.709c.7.253.886 1.519.253 1.519l-17.79-.127c-.633 0-.823-1.33-.19-1.519l5.761-1.9c-.19-3.039 0-29.946 0-29.946-2.912 0-7.344-.506-7.661.506l-2.089 6.331c-.253.7-2.912.443-2.912-.19l.506-10.636a24.508 24.508 0 01-5.381-.823c-.317.506-1.14.633-1.836.76a20 20 0 01-3.545.127c6.584.38 8.42 5.255 8.42 8.484 0 3.989-2.279 6.9-6.838 8.674 5.825.317 9.876 4.432 9.876 9.243a9.7 9.7 0 01-5.065 8.484c-2.976 1.9-6.584 2.342-12.6 2.279l-11.839-.063c-.38 0-.76-.633-.76-.886 0-.38.76-.443 4.5-2.089.95-.76 1.456-29.819.19-31.085l-4.181-1.646c-.253-.127-.38-.76-.38-.95 0-.317.253-.506.886-.506h.504c-12.156.38-20.7-8.294-20.7-19.626a18.527 18.527 0 017.344-15.258 24.423 24.423 0 0114.308-4.622c5.508 0 10.953 1.9 14.5 5.128a22.648 22.648 0 0114.876-5.128 36.512 36.512 0 0111.333 2.026v10c0 .886-2.786.95-2.976.57-2.532-5.761-1.456-6.394-2.469-7.027a14.09 14.09 0 00-6.394-1.393 15.433 15.433 0 00-11.143 4.434 19.752 19.752 0 013.166 11.27 17.975 17.975 0 01-3.355 10.763 14.676 14.676 0 0010.763 4.622 16.9 16.9 0 006.964-1.393c2.089-1.013 1.583-2.026 5.128-7.534.253-.317 2.722 0 2.532.95l-1.836 9.622c-1.33.633-2.342 1.076-2.342 1.076l-5.255 1.393"/><path fill="#56565a" d="M149.16 7.028c-.063 11.523 0 12.156-1.013 14.182-1.266 2.406-3.8 3.735-7.091 3.735-5.445 0-7.787-3.292-7.977-7.344 0-.253 0-8.61-.063-9.94-.063-1.709-.063-1.773-.633-2.026-2.469-.95-2.532-.95-2.532-1.2 0-.127.063-.253.317-.253h8.8c.38 0 .443.38.063.506l-2.342.886c-.7.253-.7.317-.76 1.393-.19 9.053-.19 11.712.886 13.485a5.385 5.385 0 008.927-.19 10.024 10.024 0 00.823-5.128c-.063-7.851-.063-7.851-.127-8.294-.063-1.2-.127-.95-2.912-2.216-.38-.127-.253-.506.063-.506l8.361-.066c.19 0 .317.063.317.253 0 .127-.063.127-2.786 1.393-.253.253-.317.38-.317 1.33M158.656 8.611l-2.216 5.7c1.963.063 2.469.063 4.5.063l-2.279-5.761zm-2.976 7.851l-1.9 5.065c-.443 1.076-.506 1.076.317 1.456l1.836.823c.443.19.253.57-.127.57h-7.6c-.253 0-.38-.063-.38-.317 0-.19.063-.19 2.026-1.076.76-.317.823-.38 1.013-.886.76-1.773 5.888-14.371 6.9-18.3h2.216c.633 2.216 1.963 5.7 3.355 9.117 1.519 3.8 2.976 7.407 3.482 8.674.506 1.2.506 1.14 1.33 1.519 1.709.76 1.773.7 1.773 1.013 0 .19-.127.253-.38.253h-8.04c-.443 0-.506-.443-.063-.57l1.836-.7c.633-.253.886-.253.443-1.456l-1.963-5.128a27.441 27.441 0 00-6.078-.063M176.632 21.399c0 .7-.063 1.2 3.229 1.2 5.255 0 8.99-3.355 8.99-8.167 0-4.875-3.735-8.357-8.863-8.357-3.419 0-3.419.57-3.419 1.456l.063 13.865zm-2.976.76c.127-2.026.127-11.839 0-14.751-.063-1.583 0-1.583-.823-1.9-2.342-.95-2.406-.886-2.406-1.14 0-.127.063-.253.317-.253 1.14 0 5.508.063 9.876 0 7.534-.127 11.206 5.128 11.206 9.94 0 6.141-5.191 10.446-10.953 10.383l-9.813-.127c-.19 0-.317-.063-.317-.253 0-.317.063-.253 2.026-.95.76-.317.823-.38.886-.95M126.748 33.365c0 .506-.507.317-.57.127-1.393-3.166-1.33-3.229-1.9-3.545a9.063 9.063 0 00-3.862-.76 8.165 8.165 0 00-8.484 8.484 8.332 8.332 0 008.23 8.61 11.469 11.469 0 004.178-.886c1.14-.57 1.266-.95 3.166-3.989.127-.19.633-.253.506.253l-1.013 5.318a15.409 15.409 0 01-6.584 1.456c-6.521 0-11.521-4.622-11.521-10.573 0-6.141 5.381-10.763 12.346-10.763a16.986 16.986 0 015.635.95l-.127 5.318"/><path fill="#56565a" d="M134.028 30.706v13.861c0 1.583 0 1.646.443 1.836 2.659 1.076 2.786 1.013 2.786 1.266a.29.29 0 01-.317.253h-8.61c-.19 0-.317-.063-.317-.253s.063-.19 2.342-1.14c.57-.19.7-.317.7-.633.063-.19.253-3.166.063-14.751-.063-1.773 0-1.709-.76-2.026-2.406-1.013-2.469-.95-2.469-1.2 0-.127.063-.253.317-.253h8.674c.19 0 .317.063.317.253s-.063.19-2.469 1.14c-.7.253-.633.19-.7 1.646M147.454 43.62c0 2.532 0 2.532.76 2.849l2.342.886c.38.127.253.506-.063.506h-9.117c-.317 0-.443-.38-.063-.506l2.532-1.013c.7-.253.7-.19.7-1.519l.063-15.258c-4.5 0-4.558-.127-4.875.7l-1.2 3.039a.288.288 0 01-.57-.063V27.16a.329.329 0 01.57-.253c.76.76 2.089.7 3.8.7h7.217c2.912 0 3.039-.19 3.609-.633.38-.253.7-.317.7.19v6.015c0 .38-.317.443-.506.127l-1.2-2.786c-.317-.76-.506-.886-1.963-.95l-2.912-.063.19 14.118M166.317 45.711c0 .38.127.506.633.7l2.6.95c.127.063.253.127.253.253a.29.29 0 01-.317.253h-9.433c-.19 0-.317-.063-.317-.253s.063-.19 2.659-1.14c1.013-.38 1.013-.317 1.013-2.089l.063-6.2c-3.862-7.344-5.065-9.117-8.294-10.13-.317-.063-.443-.19-.443-.38 0-.317.253-.443.886-.443 4.938 0 6.331 2.089 9.56 8.1l2.912-4.875c.633-1.013.76-1.14.253-1.456l-1.393-.76c-.317-.19-.253-.57.127-.57h7.787c.253 0 .38.127.38.317 0 .127-.063.19-.253.253l-2.786 1.076c-.57.19-.95.7-1.836 2.089l-4.181 6.518.127 7.787M114.592 68.185c0 .95.063 1.266 2.153 1.266 2.722 0 4.558-1.583 4.558-3.925 0-2.216-1.583-4.242-6.774-3.672l.063 6.331zm.633-8.294c2.912 0 4.812-1.456 4.812-3.8 0-2.089-1.33-3.229-3.609-3.229-1.456 0-1.963.19-1.963.76v6.268zm8.99 5.635a5.292 5.292 0 01-2.722 4.622c-1.646 1.013-2.849 1.266-6.141 1.266l-6.458-.063c-.19 0-.317-.063-.317-.253s.063-.19 2.153-1.076c.823-.317.886-.443.95-.95.317-2.659 0-12.662-.063-14.688-.063-1.709-.063-1.646-.7-1.9l-2.153-.823a.348.348 0 01-.19-.317c0-.19.127-.253.506-.253 2.849 0 7.787-.063 7.977-.063 4.622 0 5.825 2.722 5.825 4.748 0 2.153-1.33 3.672-3.292 4.748 2.976.633 4.622 2.406 4.622 5"/><path fill="#56565a" d="M132.889 55.587l-2.216 5.7c1.963.063 2.469.063 4.5.063l-2.279-5.761zm-2.976 7.851l-1.9 5.065c-.443 1.076-.506 1.076.317 1.456l1.836.823c.443.19.253.57-.127.57h-7.6c-.253 0-.38-.063-.38-.317 0-.19.063-.19 2.026-1.076.7-.317.823-.38 1.013-.886.76-1.773 5.888-14.371 6.9-18.3h2.216c.633 2.216 1.963 5.7 3.355 9.117 1.519 3.8 2.976 7.407 3.482 8.674.507 1.2.507 1.14 1.33 1.519 1.709.76 1.773.7 1.773 1.013 0 .19-.127.253-.38.253h-8.04c-.443 0-.506-.443-.063-.57l1.836-.76c.633-.253.886-.253.443-1.456l-1.963-5.128a32.389 32.389 0 00-6.078 0M150.68 67.869c0 1.773-.063 1.646.7 1.963l2.406.95c.253.127.317.57-.127.57h-8.484c-.19 0-.317-.063-.317-.253s.063-.19 2.279-1.14c.76-.317.886-.506.886-1.14.127-2.786.253-12.282 0-18.044h2.153c2.469 3.355 14.751 16.144 14.5 15.954 0-.633 0-4.748-.127-13.169 0-.506-.127-.633-.76-.886l-2.469-1.013c-.317-.127-.317-.506.127-.506h8.547c.19 0 .317.063.317.253s-.063.19-2.469 1.33c-.633.317-.7.38-.7.886-.127 13.8 0 15.764.063 18.233h-1.963c-8.357-9.623-14.435-15.954-14.561-16.018 0 .19-.063.443 0 12.029M177.522 68.756c0 .823 0 .886.76 1.2l2.342.886c.38.127.253.506-.063.506h-9.117c-.19 0-.317-.063-.317-.253 0-.253.063-.19 2.532-1.14.823-.317.823-.317.823-2.153 0-11.269 0-11.269-.063-13.422-.063-1.646 0-1.456-.7-1.773-2.279-1.013-2.342-.95-2.342-1.266 0-.19.127-.253.317-.253h8.484c.19 0 .317.063.317.253 0 .317-.063.253-2.722 1.266-.38.127-.38.19-.38 1.14v5.635l6.458-6.2c.443-.443.57-.506.063-.76l-1.773-.823c-.317-.127-.253-.506.127-.506h8.294c.19 0 .317.063.317.253 0 .506-2.089.443-4.305 2.469l-7.027 6.521c6.838 6.964 9.307 9.37 11.333 10 1.583.507 1.709.443 1.709.823s-.253.506-1.709.506c-3.292 0-4.812-.886-9.876-6.015l-3.735-3.735.253 6.838M201.205 64.07c0 2.786 2.786 5.128 6.015 5.128a8.544 8.544 0 003.8-.823c-3.545-2.722-6.331-5.508-7.724-7.851a3.993 3.993 0 00-2.089 3.545zm6.458-11.143a3.009 3.009 0 10.127 6.015 2.972 2.972 0 002.976-2.976 3.1 3.1 0 00-3.1-3.039zm-1.14 18.613c-4.5 0-7.914-3.039-7.914-7.027 0-2.532 1.266-4.432 3.8-5.761l-.127-.443a5.583 5.583 0 01-.38-1.836 5.662 5.662 0 015.951-5.508c3.1 0 5.508 2.153 5.508 5a5.017 5.017 0 01-5.128 4.875 5.493 5.493 0 01-1.646-.253 39.524 39.524 0 006.584 6.015 11.329 11.329 0 002.849-4.5l-1.456.063c-.76 0-1.14.253-1.963 1.266-.7.886-.823.317-.76.063l.7-3.355c.063-.317.127-.38.823-.253a35.3 35.3 0 005.951.253 4.5 4.5 0 002.216-.38c.507-.253.57-.253.7-.253a.272.272 0 01.253.253c0 .063 0 .19-.886 4.242-.063.38-.443.506-.633 0l-.317-.95c-.253-.76-.443-.886-1.456-.95h-.886a20.365 20.365 0 01-3.419 5.7 14.541 14.541 0 005.7 2.469c.443.063.633.19.633.443 0 .506-.886.7-2.722.7a9.407 9.407 0 01-5.635-1.9 11.179 11.179 0 01-6.331 2.026M118.078 90.597c0 2.532 0 2.532.76 2.849l2.342.886c.38.127.253.506-.063.506H112c-.317 0-.443-.38-.063-.506l2.532-1.013c.7-.253.7-.19.7-1.519l.063-15.258c-4.5 0-4.558-.127-4.875.7l-1.2 3.039a.288.288 0 01-.57-.063V74.14a.329.329 0 01.57-.253c.76.76 2.089.7 3.8.7h7.217c2.912 0 3.039-.19 3.609-.633.38-.253.7-.317.7.19v6.015c0 .38-.317.443-.506.127l-1.2-2.786c-.317-.76-.506-.886-1.963-.95l-2.912-.063.19 14.118M132.002 84.14a5.093 5.093 0 003.292-.886 3.848 3.848 0 001.583-3.229 3.737 3.737 0 00-3.925-3.672c-1.709 0-1.583.317-1.583 1.14v6.648zm-.57 8.04c0 .886 0 .95.76 1.2l2.279.823c.317.063.317.57-.127.57h-8.8c-.19 0-.317-.063-.317-.253s.063-.19 2.6-1.266c.7-.253.633-.127.633-1.646.127-7.027 0-12.472-.063-14.118 0-1.393 0-1.33-.76-1.583-2.342-.823-2.406-.76-2.406-1.076a.3.3 0 01.317-.317l7.217-.063c2.216 0 3.609.317 4.812 1.2a5.437 5.437 0 012.153 4.5c0 2.722-1.9 4.812-5 5.508l5.065 5.445c2.089 2.216 2.912 2.659 3.989 3.039.57.19.7.317.7.57 0 .38-.317.506-1.33.506-2.722 0-3.482-.38-6.2-3.355l-5.571-5.951h-.127l.19 6.268"/><path fill="#56565a" d="M158.91 77.493c-.063 11.523 0 12.156-1.013 14.182-1.266 2.406-3.8 3.735-7.091 3.735-5.445 0-7.787-3.292-7.977-7.344 0-.253 0-8.61-.063-9.94-.063-1.709-.063-1.773-.633-2.026-2.469-.95-2.532-.95-2.532-1.2 0-.127.063-.253.317-.253h8.8c.38 0 .443.38.063.506l-2.342.886c-.7.253-.7.317-.7 1.393-.19 9.053-.19 11.712.886 13.485a5.385 5.385 0 008.927-.19 10.024 10.024 0 00.823-5.128c-.063-7.787-.063-7.787-.127-8.294-.063-1.2-.127-.95-2.912-2.216-.38-.127-.253-.506.063-.506l8.357-.063c.19 0 .317.063.317.253 0 .127-.063.127-2.786 1.393-.317.253-.317.38-.38 1.33"/><path fill="#56565a" d="M172.142 80.151c0 .317-.317.506-.507.063l-1.266-2.659c-.443-1.013-1.393-1.456-2.849-1.456a3.507 3.507 0 00-3.735 3.292c0 1.519.823 2.406 5.318 4.558 3.166 1.519 4.305 3.039 4.305 5.445 0 3.545-2.532 5.825-6.394 5.825a19.824 19.824 0 01-5.381-.823l-.063-5.571c0-.38.38-.443.507-.127 1.393 3.292 1.393 3.292 1.773 3.545a6.6 6.6 0 003.229.823c2.089 0 3.545-1.33 3.545-3.1s-.886-2.406-4.875-4.368c-3.482-1.709-4.748-3.229-4.748-5.761 0-3.482 2.849-5.761 7.027-5.761a12.884 12.884 0 014.052.633v5.445M183.034 90.597c0 2.532 0 2.532.76 2.849l2.342.886c.38.127.253.506-.063.506h-9.117c-.317 0-.443-.38-.063-.506l2.532-1.013c.7-.253.7-.19.7-1.519l.063-15.258c-4.5 0-4.558-.127-4.875.7l-1.2 3.039a.288.288 0 01-.57-.063V74.14a.329.329 0 01.57-.253c.76.76 2.089.7 3.8.7h7.217c2.912 0 3.039-.19 3.609-.633.38-.253.7-.317.7.19l.063 6.015c0 .38-.317.443-.506.127l-1.2-2.786c-.317-.76-.507-.886-1.963-.95l-2.912-.063.127 14.118"/><path fill="#56565a" fill-rule="evenodd" d="M125.862 20.703a8.284 8.284 0 00-5.761-1.393c-.443.063-1.076.19-1.076.7 0 .317.19.317.507.317a5.219 5.219 0 013.862 1.646l.253.253c-.253.127-.063.063-.317.127a8.619 8.619 0 01-11.523-8.484 8.058 8.058 0 018.23-8.23c4.748 0 8.42 3.925 8.42 8.99a7.871 7.871 0 01-2.6 6.078zm6.458 3.482c-.063-.317-.19-.317-.506-.317a6.529 6.529 0 01-4.305-1.456.221.221 0 01-.127.063 10.167 10.167 0 004.052-8.23A10.576 10.576 0 00120.48 3.609a13.264 13.264 0 00-7.724 2.532 9.652 9.652 0 00-3.925 8.1c0 6.2 4.685 10.636 11.143 10.636a11.219 11.219 0 005.255-1.14c1.9 1.519 4.432 1.393 5.7 1.266.443-.063 1.456-.317 1.393-.823"/><path fill="#56565a" d="M63.12 51.852c-.7 1.14-.633 1.14-1.456 7.154l1.646-4.178c.823-2.026.886-1.583 10.32-1.583l1.583-1.14v32.6a65.316 65.316 0 01-7.217 2.089h14.5l-3.482-1.266c-1.393-.506-1.583-.76-1.583-3.609l-.063-28.68 5.825.127c2.532.063 3.8-.317 4.5-1.266l1.571 7.099v-9.5c-1.456 1.2-2.659 1.519-7.344 1.519l-13.105-.063c-4.178.063-5.635-.19-6.584-.7h-.567a3.433 3.433 0 001.456 1.393"/><path fill="#56565a" d="M67.996 86.925l-.063-.506a52.707 52.707 0 007.027-1.963V52.547l-1.2.886h-5.888c-3.8.063-3.672.063-4.305 1.456l-1.649 4.179-.506-.127c.76-5.571.76-5.951 1.393-7.027a3.04 3.04 0 01-1.33-1.519l-.127-.38h1.013l.063.063c.76.443 2.026.633 5.508.633h.95l13.105.063c4.685 0 5.825-.253 7.154-1.456l.443-.317v10.067l-.506.063-1.519-6.584c-.76.7-1.963 1.013-3.925 1.013h-.443l-5.571-.127.063 28.426c.127 2.912.127 2.849 1.456 3.355l3.482 1.266-.063.506H67.996zm13.042-.506l-2.153-.823c-1.456-.506-1.773-1.076-1.773-3.862l-.064-28.932 6.078.127h.443c2.216 0 3.229-.38 3.862-1.2l.317-.443 1.266 5.445v-6.716c-1.393 1.013-2.849 1.266-7.091 1.2l-13.105-.063h-.95c-3.355 0-4.748-.19-5.7-.7h-.12a3.5 3.5 0 001.2 1.15l-.127.19.127-.19.19.127-.127.19c-.57.95-.57 1.076-1.14 5l.886-2.279c.57-1.519 1.076-1.836 4.748-1.773h5.7l1.9-1.393v33.365l-.19.063a46.553 46.553 0 01-5.191 1.583h11.014zM42.988 66.983a11.95 11.95 0 01-2.026-.127V55.84c0-2.216-.633-3.166 5.445-3.166 4.812 0 7.851 2.406 7.851 6.2.063 4.052-4.432 8.1-11.269 8.1zm13.738 9.75c0 8.61-12.979 8.863-15 7.154-.76-.7-.506-.823-.7-14.625 9.623-.95 15.7 2.089 15.7 7.471zM45.964 50.777l-13.422.125 6.268 1.963c0 .317.063 23.931.253 31.845-2.6.95-3.419 1.2-6.2 2.026l10.889.127c5.445 0 7.851-.506 10.636-2.279a8.9 8.9 0 004.432-7.724c0-4.748-3.166-8.167-10.193-9.053 4.368-1.583 7.661-4.305 7.661-8.8 0-3.355-1.836-8.357-10.32-8.23"/><path fill="#56565a" d="M43.748 86.989l-10.89-.13-.063-.506a51.514 51.514 0 006.015-1.963c-.19-7.661-.19-29.186-.253-31.4l-6.141-1.9.063-.506 13.421-.125h.253c8.357 0 10.32 5.065 10.32 8.357 0 4.305-3.039 7.027-6.964 8.674 6.458 1.076 9.5 4.558 9.433 9.18a9.434 9.434 0 01-4.558 7.977c-2.722 1.836-5.191 2.342-10.636 2.342zm0-.506c5.445 0 7.724-.506 10.51-2.216a8.807 8.807 0 004.368-7.534c0-4.622-3.039-7.914-9.94-8.8l-.063-.506c4.305-1.583 7.534-4.178 7.534-8.547 0-3.1-1.709-7.851-9.813-7.851h-.253l-11.9.063 4.938 1.519v.19c0 .317.063 23.931.253 31.845v.19l-.19.063a47.76 47.76 0 01-4.558 1.519l9.117.063zm-2.216-2.406c-.95-.886-.57-1.013-.823-14.815v-.253h.253a31.565 31.565 0 013.355-.19c7.724 0 12.662 2.976 12.662 7.914 0 6.268-6.648 8.23-11.206 8.23a7.54 7.54 0 01-4.242-.886zm.317-.38a7.18 7.18 0 003.925.823c4.5 0 10.7-1.9 10.7-7.724 0-4.558-4.5-7.407-12.156-7.407-1.013 0-2.026.063-3.1.127.19 13.548 0 13.738.633 14.182zm-.886-16.524h-.19V54.827a1.706 1.706 0 011.013-1.836c.823-.38 2.216-.506 4.748-.57 4.938 0 8.1 2.469 8.1 6.458 0 4.242-4.622 8.357-11.523 8.357v-.506c6.774 0 11.016-3.989 11.016-7.851 0-3.672-2.849-5.951-7.6-5.951-5.128.063-5.191.57-5.191 1.9v11.839a17.189 17.189 0 001.773.063v.506c-.76 0-1.266 0-2.153-.063z"/><path fill="#00447c" d="M32.098 50.205"/><path fill="#56565a" d="M53.814 76.73c0 4.052-3.229 6.9-7.914 6.9-3.609 0-2.912-.506-2.912-2.216l-.19-11.079c8.99-.95 11.016 2.532 11.016 6.394M51.661 59.386c0 3.989-2.912 6.584-7.977 6.584a4.792 4.792 0 01-.95-.063l-.063-10.826c0-1.013.127-1.33 2.659-1.33 4.052 0 6.331 2.026 6.331 5.635M32.098 50.206c3.672 0 8.927-.886 10.383-1.9a9.86 9.86 0 004.812 1.709H46.28c-.317 0-8.863.253-14.182.19M47.23 35.961a14.382 14.382 0 01-1.013-5.888 11.058 11.058 0 01.76-4.685 13.623 13.623 0 011.013 5.825 14.362 14.362 0 01-.76 4.748M47.04 45.204a19.8 19.8 0 004.5 2.976c-2.347-.376-5.07-2.406-5.133-2.406.317-.253.38-.38.633-.57M30.263 41.215a1.351 1.351 0 001.2 1.013c2.849-.127 5.825.317 7.407 1.836a14.52 14.52 0 01-20.573-13.928 14.088 14.088 0 0114.5-14.245c4.242 0 7.787 1.076 10.446 4.052a19.709 19.709 0 00-3.8 10.953 17.156 17.156 0 003.545 10.573 3.272 3.272 0 01-.443.38c-4.115-2.786-8.167-2.279-10.51-2.026-.823.063-1.836.57-1.773 1.393M62.234 13.928a33.758 33.758 0 018.04 1.14l1.836 6.838.127-8.484a30.749 30.749 0 00-9.5-1.583c-6.078 0-10.446 1.456-13.992 4.875a10.369 10.369 0 011.33 1.583c3.039-3.1 6.774-4.368 12.156-4.368"/><path fill="#56565a" d="M70.085 15.323a33.12 33.12 0 00-7.851-1.14v-.506a32.243 32.243 0 018.167 1.2l.127.063 1.393 5.255.063-6.521a30.98 30.98 0 00-9.243-1.519c-5.951 0-10.13 1.393-13.675 4.622a9.258 9.258 0 011.013 1.2c3.1-3.039 6.838-4.242 12.156-4.242v.443c-5.318 0-8.927 1.2-11.966 4.305l-.253.19-.19-.253a34.506 34.506 0 00-1.33-1.583l-.19-.19.19-.19c3.609-3.482 8.1-4.938 14.182-4.938a30.978 30.978 0 019.56 1.646l.19.063-.127 8.674-.506.063-1.71-6.642zM60.018 49.383l1.519.063a29.245 29.245 0 0011.017-2.22l1.773-8.8c-1.393 3.166-1.836 4.178-3.419 7.154a25.189 25.189 0 01-9.18 1.773 16.748 16.748 0 01-16.9-16.967 18.1 18.1 0 011.2-6.521 14.038 14.038 0 00-1.331-2.339 17.838 17.838 0 00-2.279 8.927c0 10.13 8.42 18.93 17.6 18.93"/><path fill="#56565a" d="M60.019 49.635c-9.37 0-17.917-8.927-17.917-19.183a18.831 18.831 0 012.279-9.053l.19-.38.253.317a21.8 21.8 0 011.393 2.406l.063.127-.063.127a17.757 17.757 0 00-1.2 6.458 16.6 16.6 0 0016.648 16.712 24.142 24.142 0 008.99-1.709 73.53 73.53 0 003.419-7.091l.443.127-1.709 8.926-.127.063a29.562 29.562 0 01-11.079 2.217l-1.583-.063zM42.672 30.452c0 9.94 8.357 18.677 17.41 18.677l1.52.063a29.39 29.39 0 0010.763-2.153l1.266-6.394c-.76 1.709-1.33 2.849-2.532 5.065l-.063.063-.063.063a24.255 24.255 0 01-9.243 1.773 17.1 17.1 0 01-17.159-17.22 18.1 18.1 0 011.2-6.521c-.317-.633-.7-1.266-1.076-1.9a18.424 18.424 0 00-2.026 8.484z"/><path fill="#56565a" d="M33.238 11.839c-10.7 0-18.93 8.04-18.93 18.55a18.717 18.717 0 0019.056 18.867 20.2 20.2 0 008.99-2.089 6.327 6.327 0 00.886-.506 2.754 2.754 0 00.443.38c.063.063.127.063.127.127 2.659 2.216 7.217 2.469 10.256 2.153a3.086 3.086 0 01-.7-.253 12.352 12.352 0 01-7.977-2.912l-.127-.127-.38-.38c.063-.063.19-.127.253-.19.317-.253.57-.443.886-.7a15.137 15.137 0 01-1.393-1.456 10.822 10.822 0 01-.886.7c-.063.063-.19.127-.253.19a5.061 5.061 0 00-.823-.823l-.127-.127c-2.843-2.404-7.275-2.851-10.377-2.404 0 0-.886.063-.886.19a.779.779 0 00.127.317 11.819 11.819 0 019.623 2.849l.127.127a7.588 7.588 0 01.7.76 4.722 4.722 0 01-.95.57 18.445 18.445 0 01-7.795 1.641c-9.5-.063-16.651-7.471-16.651-17.284 0-9.307 7.154-16.208 16.777-16.208 10.889 0 16.967 9.37 16.967 17.157 0 3.1-.317 4.748-1.773 7.154a22.9 22.9 0 001.397 2.027c2.026-2.976 2.6-5.635 2.6-9.56 0-5.508-3.8-18.74-19.183-18.74"/><g><path fill="#56565a" d="M43.555 47.357l-.127-.127a1.381 1.381 0 00-.317-.253 6.905 6.905 0 01-.7.38 19.686 19.686 0 01-9.053 2.153c-10.883-.064-19.303-8.358-19.303-19.12 0-10.573 8.357-18.74 19.183-18.8v.506c-10.573 0-18.677 7.977-18.677 18.3a18.448 18.448 0 0018.804 18.607 19.66 19.66 0 008.863-2.089 6.326 6.326 0 00.886-.506l.19-.127.127.127.38.38.127.127c1.9 1.646 4.938 2.153 7.6 2.216a11.831 11.831 0 01-6.331-2.849l-.127-.127a2.753 2.753 0 00-.443-.38l-.253-.19.253-.19c.063-.063.19-.127.253-.19.19-.19.443-.317.633-.506-.38-.38-.76-.7-1.076-1.076a2.811 2.811 0 01-.7.506c-.063.063-.19.127-.253.19l-.19.127-.127-.19a8.594 8.594 0 00-.76-.76l-.127-.127a12.682 12.682 0 00-8.04-2.532h-1.012a11.782 11.782 0 017.851 3.039l.127.127a4.359 4.359 0 01.7.823l.19.19-.253.127a4.722 4.722 0 01-.95.57 17.872 17.872 0 01-7.851 1.773c-9.56 0-16.841-7.534-16.841-17.474 0-9.433 7.281-16.4 17.031-16.461 11.016 0 17.22 9.5 17.22 17.41 0 3.039-.317 4.812-1.773 7.154a13.9 13.9 0 001.076 1.583c1.836-2.786 2.342-5.381 2.342-9.117 0-5.508-3.735-18.55-18.93-18.55v-.508c15.574 0 19.436 13.422 19.436 19.056 0 3.925-.57 6.711-2.659 9.687l-.19.253-.19-.253a14.986 14.986 0 01-1.393-2.089h-.063l.063-.127a11.462 11.462 0 001.774-7.027c0-7.661-6.015-16.841-16.714-16.9-9.5 0-16.524 6.774-16.524 15.954 0 9.687 7.091 16.967 16.334 16.967a17.868 17.868 0 007.661-1.646 1.828 1.828 0 00.633-.38 1.927 1.927 0 00-.506-.506c-.063-.063-.063-.127-.127-.127a11.446 11.446 0 00-7.724-2.912 15.523 15.523 0 00-1.709.127h-.127l-.063-.127a1.576 1.576 0 01-.19-.443v-.063c.253-.443.38-.253.633-.38a2.024 2.024 0 01.443-.063 12.649 12.649 0 012.216-.127 13.245 13.245 0 018.357 2.6l.127.127c.253.19.443.443.7.633a.062.062 0 00.063-.063 9.307 9.307 0 00.823-.633l.19-.127.19.19c.443.506.886.95 1.393 1.456l.19.19-.19.19a8.512 8.512 0 01-.886.7h-.063l.19.19.127.127a12.218 12.218 0 007.914 2.849 3.086 3.086 0 01.7.253l-.063.506c-.7.063-1.519.127-2.342.127-2.722-.063-5.888-.57-8.04-2.342zm-12.659-6.458z"/></g></svg>